<svg width="41" height="40" viewBox="0 0 41 40" fill="none" xmlns="http://www.w3.org/2000/svg">
<g clip-path="url(#clip0_356_1735)">
<path d="M37.7607 30.8005C37.753 30.7895 37.7459 30.7783 37.7388 30.767L22.5404 6.67899C21.6395 5.25165 19.5596 5.25399 18.6602 6.67907L3.39656 30.8706C2.43445 32.3956 3.53289 34.3886 5.33664 34.3886H35.8664C37.7102 34.3886 38.7959 32.3138 37.7607 30.8005Z" fill="#C6271A"/>
<path d="M5.15742 33.2031C4.95929 32.8437 4.86115 32.4378 4.87321 32.0277C4.88527 31.6175 5.00711 31.2181 5.22602 30.871L20.4897 6.67957C20.735 6.28955 21.0924 5.98276 21.5151 5.79942C20.4974 5.35825 19.2791 5.69879 18.6602 6.67957L3.39656 30.871C2.43445 32.396 3.53289 34.389 5.33664 34.389H7.16617C6.7559 34.389 6.35313 34.279 5.99984 34.0704C5.64654 33.8618 5.35563 33.5623 5.15742 33.2031Z" fill="#AF221B"/>
<path d="M35.8655 36.8245H5.33584C1.61819 36.8245 -0.648526 32.7161 1.33569 29.5708L16.5995 5.37943C18.4564 2.43701 22.7453 2.44029 24.5996 5.37927L39.7861 29.4481C41.903 32.5795 39.6459 36.8245 35.8655 36.8245ZM18.8292 6.78638L3.56561 30.9777C2.68772 32.3693 3.68998 34.188 5.33592 34.188H35.8656C37.5467 34.188 38.5396 32.2959 37.5951 30.915C37.5858 30.9016 37.5769 30.888 37.5683 30.8741L22.3699 6.7863C21.5478 5.48388 19.65 5.48583 18.8292 6.78638Z" fill="#F74C48"/>
<path d="M2.94154 29.5715L18.2053 5.38004C18.9317 4.22902 20.0912 3.46504 21.4024 3.24207C19.5262 2.92332 17.6372 3.73543 16.5994 5.38004L1.33561 29.5715C-0.647987 32.7158 1.61686 36.8253 5.33576 36.8253H6.94162C3.22404 36.8252 0.957325 32.7168 2.94154 29.5715Z" fill="#D63322"/>
<path d="M20.6005 14.4727C19.8726 14.4727 19.2822 15.0629 19.2822 15.7909V23.4462C19.2822 24.1742 19.8726 24.7645 20.6005 24.7645C21.3287 24.7645 21.9189 24.1742 21.9189 23.4462V15.7909C21.9189 15.0629 21.3287 14.4727 20.6005 14.4727Z" fill="#F2F2F2"/>
<path d="M20.6005 29.8514C21.3286 29.8514 21.9188 29.2612 21.9188 28.5331C21.9188 27.8051 21.3286 27.2148 20.6005 27.2148C19.8724 27.2148 19.2822 27.8051 19.2822 28.5331C19.2822 29.2612 19.8724 29.8514 20.6005 29.8514Z" fill="#F2F2F2"/>
</g>
<defs>
<clipPath id="clip0_356_1735">
<rect width="40" height="40" fill="white" transform="translate(0.600586)"/>
</clipPath>
</defs>
</svg>
