<svg width="40" height="40" viewBox="0 0 40 40" fill="none" xmlns="http://www.w3.org/2000/svg">
<g clip-path="url(#clip0_356_1750)">
<path d="M33.2533 33.2583C40.5756 25.9359 40.5756 14.0641 33.2533 6.74175C25.9309 -0.580582 14.0591 -0.580582 6.73677 6.74175C-0.585563 14.0641 -0.585563 25.9359 6.73677 33.2583C14.0591 40.5806 25.9309 40.5806 33.2533 33.2583Z" fill="#46CC6B"/>
<path fill-rule="evenodd" clip-rule="evenodd" d="M38.4788 23.1815C37.1447 30.9877 30.9855 37.1466 23.1795 38.4808L13.0857 28.387C10.6703 26.3936 9.13086 23.377 9.13086 20.0007C9.13086 13.9984 13.9965 9.13281 19.9987 9.13281C23.375 9.13281 26.3916 10.6723 28.385 13.0877L38.4788 23.1815Z" fill="#179C5F"/>
<path fill-rule="evenodd" clip-rule="evenodd" d="M14.9117 20.646L18.0069 23.4884C18.4584 23.904 19.1572 23.8819 19.5818 23.4441L25.1036 18.1573C25.5527 17.7254 25.5663 17.0109 25.1343 16.5615C24.7023 16.1128 23.9881 16.0987 23.539 16.5306L18.756 21.1101L16.4408 18.9841C15.9821 18.562 15.2675 18.5916 14.8452 19.0508C14.423 19.5095 14.4528 20.2236 14.9117 20.646ZM19.9987 9.13281C26.001 9.13281 30.8666 13.9984 30.8666 20.0007C30.8666 26.003 26.001 30.8686 19.9987 30.8686C13.9965 30.8686 9.13086 26.003 9.13086 20.0007C9.13086 13.9984 13.9965 9.13281 19.9987 9.13281Z" fill="white"/>
</g>
<defs>
<clipPath id="clip0_356_1750">
<rect width="40" height="40" fill="white"/>
</clipPath>
</defs>
</svg>
