<svg width="56" height="57" viewBox="0 0 56 57" fill="none" xmlns="http://www.w3.org/2000/svg">
<g clip-path="url(#clip0_366_4922)">
<path d="M36.8606 54.4314V7.17603C36.8606 6.0335 35.9345 5.10742 34.7919 5.10742H5.90162C4.75909 5.10742 3.83301 6.03361 3.83301 7.17603V54.4314C3.83301 55.5739 4.7592 56.5 5.90162 56.5H34.792C35.9345 56.5 36.8606 55.5738 36.8606 54.4314Z" fill="#FFC250"/>
<path d="M41.5747 5.10742H34.6514C35.7939 5.10742 36.7201 6.03361 36.7201 7.17603V54.4314C36.7201 55.5739 35.7939 56.5 34.6514 56.5H41.5747C42.7172 56.5 43.6434 55.5738 43.6434 54.4314V7.17614C43.6434 6.03361 42.7172 5.10742 41.5747 5.10742Z" fill="#EAB14D"/>
<path d="M7.21387 52.3796V9.22814C7.21387 9.03205 7.29177 8.84399 7.43043 8.70533C7.56908 8.56667 7.75715 8.48877 7.95324 8.48877H39.5224C39.7185 8.48877 39.9065 8.56667 40.0452 8.70533C40.1838 8.84399 40.2617 9.03205 40.2617 9.22814V52.3796C40.2617 52.5757 40.1838 52.7638 40.0452 52.9025C39.9065 53.0411 39.7185 53.119 39.5224 53.119H7.95324C7.75715 53.119 7.56908 53.0411 7.43043 52.9025C7.29177 52.7638 7.21387 52.5757 7.21387 52.3796Z" fill="#F5F5F5"/>
<path d="M39.5229 8.48877H32.5996C32.7957 8.48877 32.9838 8.56667 33.1224 8.70533C33.2611 8.84399 33.339 9.03205 33.339 9.22814V52.3796C33.339 52.5757 33.2611 52.7638 33.1224 52.9025C32.9838 53.0411 32.7957 53.119 32.5996 53.119H39.5229C39.719 53.119 39.9071 53.0411 40.0458 52.9025C40.1844 52.7638 40.2623 52.5757 40.2623 52.3796V9.22814C40.2623 9.03205 40.1844 8.84399 40.0458 8.70533C39.9071 8.56667 39.719 8.48877 39.5229 8.48877Z" fill="#EAEAEA"/>
<path d="M28.1324 3.07447V1.98542C28.1324 1.16511 27.4674 0.5 26.647 0.5H20.8285C20.0081 0.5 19.3431 1.16511 19.3431 1.98542V3.07447C19.3431 3.23558 19.2791 3.39009 19.1652 3.50401C19.0513 3.61794 18.8968 3.68194 18.7357 3.68194H16.3141C15.5085 3.68194 14.8555 4.33502 14.8555 5.14056V8.48853H32.62V5.14056C32.62 4.33502 31.967 3.68194 31.1614 3.68194H28.7399C28.5788 3.68194 28.4242 3.61794 28.3103 3.50401C28.1964 3.39009 28.1324 3.23558 28.1324 3.07447Z" fill="#C2D0DA"/>
<path d="M11.5146 20.4927V13.9807C11.5146 13.2593 12.0996 12.6743 12.821 12.6743H19.333C20.0544 12.6743 20.6394 13.2593 20.6394 13.9807V20.4927C20.6394 21.2141 20.0544 21.799 19.333 21.799H12.821C12.0995 21.799 11.5146 21.2141 11.5146 20.4927ZM11.5146 34.0595V27.5476C11.5146 26.8261 12.0996 26.2412 12.821 26.2412H19.333C20.0544 26.2412 20.6394 26.8261 20.6394 27.5476V34.0595C20.6394 34.781 20.0544 35.3659 19.333 35.3659H12.821C12.0995 35.3659 11.5146 34.781 11.5146 34.0595ZM11.5146 47.6263V41.1143C11.5146 40.3929 12.0996 39.808 12.821 39.808H19.333C20.0544 39.808 20.6394 40.3929 20.6394 41.1143V47.6263C20.6394 48.3477 20.0544 48.9327 19.333 48.9327H12.821C12.0995 48.9327 11.5146 48.3479 11.5146 47.6263Z" fill="#66B49D"/>
<path d="M15.5259 19.5691H15.523C15.3384 19.5683 15.1566 19.5242 14.9922 19.4403C14.8278 19.3563 14.6853 19.235 14.5764 19.086L13.5896 17.7308C13.4601 17.5495 13.4075 17.3244 13.4431 17.1045C13.4788 16.8846 13.5998 16.6876 13.7799 16.5565C13.96 16.4253 14.1846 16.3706 14.4048 16.4042C14.625 16.4378 14.8231 16.557 14.9559 16.7358L15.5281 17.5217L17.201 15.2489C17.3338 15.0684 17.5329 14.9481 17.7545 14.9144C17.9761 14.8807 18.2019 14.9364 18.3824 15.0693C18.4718 15.1351 18.5474 15.2178 18.6048 15.3128C18.6622 15.4078 18.7003 15.5131 18.717 15.6229C18.7336 15.7326 18.7285 15.8445 18.702 15.9523C18.6754 16.06 18.6278 16.1615 18.562 16.2509L16.4716 19.0908C16.3623 19.2388 16.2198 19.3592 16.0556 19.4423C15.8913 19.5253 15.7099 19.5687 15.5259 19.5691ZM15.5258 33.4312H15.5227C15.3381 33.4304 15.1563 33.3862 14.9919 33.3023C14.8274 33.2183 14.6851 33.0969 14.5762 32.9478L13.5896 31.5929C13.4601 31.4116 13.4075 31.1865 13.4431 30.9666C13.4788 30.7467 13.5998 30.5497 13.7799 30.4186C13.96 30.2874 14.1846 30.2327 14.4048 30.2663C14.625 30.2998 14.8231 30.419 14.9559 30.5979L15.5281 31.3838L17.201 29.1109C17.3351 28.934 17.5336 28.817 17.7533 28.7853C17.9731 28.7535 18.1965 28.8095 18.3753 28.9411C18.5542 29.0727 18.674 29.2695 18.7089 29.4887C18.7439 29.708 18.6911 29.9322 18.562 30.1129L16.4716 32.9529C16.3623 33.1009 16.2198 33.2214 16.0556 33.3044C15.8913 33.3875 15.7098 33.4309 15.5258 33.4312ZM15.5258 46.7029L15.5229 46.7028C15.3384 46.7021 15.1566 46.658 14.9922 46.5741C14.8278 46.4902 14.6853 46.3689 14.5764 46.2199L13.5896 44.8646C13.4577 44.6834 13.4032 44.4572 13.438 44.2358C13.4729 44.0144 13.5942 43.8159 13.7754 43.684C13.9566 43.552 14.1828 43.4975 14.4042 43.5324C14.6256 43.5672 14.8241 43.6886 14.956 43.8698L15.5281 44.6555L17.2011 42.3827C17.3353 42.2058 17.5337 42.0888 17.7534 42.057C17.9732 42.0253 18.1966 42.0812 18.3755 42.2129C18.5543 42.3445 18.6741 42.5412 18.709 42.7605C18.744 42.9798 18.6912 43.204 18.5621 43.3847L16.4718 46.2246C16.3624 46.3727 16.2198 46.4931 16.0556 46.5761C15.8913 46.6592 15.7098 46.7026 15.5258 46.7029Z" fill="#F6F9F9"/>
<path d="M35.2949 16.316H24.848C24.6238 16.316 24.4089 16.227 24.2504 16.0685C24.092 15.9101 24.0029 15.6951 24.0029 15.471C24.0029 15.2469 24.092 15.032 24.2504 14.8735C24.4089 14.715 24.6238 14.626 24.848 14.626H35.2949C35.519 14.626 35.734 14.715 35.8924 14.8735C36.0509 15.032 36.1399 15.2469 36.1399 15.471C36.1399 15.6951 36.0509 15.9101 35.8924 16.0685C35.734 16.227 35.519 16.316 35.2949 16.316ZM30.0715 19.8474H24.8481C24.624 19.8474 24.409 19.7584 24.2505 19.5999C24.0921 19.4415 24.003 19.2265 24.003 19.0024C24.003 18.7783 24.0921 18.5633 24.2505 18.4049C24.409 18.2464 24.624 18.1574 24.8481 18.1574H30.0715C30.2956 18.1574 30.5105 18.2464 30.669 18.4049C30.8275 18.5633 30.9165 18.7783 30.9165 19.0024C30.9165 19.2265 30.8275 19.4415 30.669 19.5999C30.5105 19.7584 30.2956 19.8474 30.0715 19.8474ZM31.8575 29.8829H24.8481C24.624 29.8829 24.409 29.7939 24.2505 29.6354C24.0921 29.4769 24.003 29.262 24.003 29.0379C24.003 28.8138 24.0921 28.5988 24.2505 28.4404C24.409 28.2819 24.624 28.1929 24.8481 28.1929H31.8575C32.0816 28.1929 32.2965 28.2819 32.455 28.4404C32.6135 28.5988 32.7025 28.8138 32.7025 29.0379C32.7025 29.262 32.6135 29.4769 32.455 29.6354C32.2965 29.7939 32.0816 29.8829 31.8575 29.8829ZM30.0715 33.4143H24.8481C24.7371 33.4143 24.6272 33.3924 24.5247 33.35C24.4222 33.3075 24.329 33.2453 24.2505 33.1668C24.1721 33.0883 24.1098 32.9952 24.0674 32.8927C24.0249 32.7901 24.003 32.6802 24.003 32.5693C24.003 32.4583 24.0249 32.3484 24.0674 32.2459C24.1098 32.1434 24.1721 32.0502 24.2505 31.9717C24.329 31.8933 24.4222 31.831 24.5247 31.7886C24.6272 31.7461 24.7371 31.7242 24.8481 31.7242H30.0715C30.1825 31.7242 30.2923 31.7461 30.3949 31.7886C30.4974 31.831 30.5905 31.8933 30.669 31.9717C30.7475 32.0502 30.8097 32.1434 30.8522 32.2459C30.8947 32.3484 30.9165 32.4583 30.9165 32.5693C30.9165 32.6802 30.8947 32.7901 30.8522 32.8927C30.8097 32.9952 30.7475 33.0883 30.669 33.1668C30.5905 33.2453 30.4974 33.3075 30.3949 33.35C30.2923 33.3924 30.1825 33.4143 30.0715 33.4143Z" fill="#DDEAFB"/>
<path d="M48.8813 22.563L48.0515 21.4699L44.9469 19.5039L43.7535 19.3159L27.8564 44.4364C27.4729 45.0421 27.1915 45.7067 27.0234 46.4037C27.9719 46.4155 28.8984 46.6904 29.6997 47.1978C30.5011 47.7053 31.1457 48.4253 31.5618 49.2777C32.1201 48.8278 32.6006 48.2892 32.9842 47.6835L48.8813 22.563Z" fill="#FC8086"/>
<path d="M51.1259 14.8274L49.7844 13.9778C48.7387 13.3156 47.354 13.6267 46.6921 14.6727L45.4619 16.6166L45.8544 17.4077L49.5873 19.7717L50.5897 19.8637L51.8207 17.9186C52.4822 16.8732 52.1712 15.4893 51.1259 14.8274Z" fill="#8C9BA6"/>
<path d="M43.7549 19.3085L45.4639 16.6094L50.5925 19.8565L48.8836 22.5557L43.7549 19.3085Z" fill="#C9E2E7"/>
<path d="M31.562 49.2777L27.0355 52.9254C26.397 53.44 25.4693 52.8526 25.6614 52.0553L27.0236 46.4038C27.972 46.4155 28.8986 46.6904 29.6999 47.1979C30.5013 47.7053 31.1459 48.4254 31.562 49.2777Z" fill="#7C8B96"/>
<path d="M30.3742 47.7118L47.0384 21.3964L45.6106 20.4922L28.9463 46.8076C29.469 47.0279 29.9516 47.3334 30.3742 47.7118Z" fill="#FB636F"/>
</g>
<defs>
<clipPath id="clip0_366_4922">
<rect width="56" height="56" fill="white" transform="translate(0 0.5)"/>
</clipPath>
</defs>
</svg>
