<svg width="41" height="40" viewBox="0 0 41 40" fill="none" xmlns="http://www.w3.org/2000/svg">
<g clip-path="url(#clip0_356_1615)">
<path d="M27.067 18.6578V32.6966C27.067 33.2662 26.675 33.7612 26.1206 33.8919L14.0155 36.7476C13.8301 36.7911 13.6372 36.7911 13.4519 36.7476L1.3468 33.8919C1.07748 33.8284 0.8375 33.6758 0.66573 33.4588C0.49396 33.2419 0.400464 32.9733 0.400391 32.6966L0.400391 18.6578C0.400391 18.3153 0.542266 18.0005 0.775234 17.7748H26.6909V17.7734C26.8099 17.8879 26.9046 18.0252 26.9692 18.1772C27.0339 18.3292 27.0671 18.4927 27.067 18.6578Z" fill="url(#paint0_linear_356_1615)"/>
<path d="M13.7344 21.8033V20.5H15.1086L13.7344 21.8033Z" fill="url(#paint1_linear_356_1615)"/>
<path d="M26.6911 17.7748H19.1973V35.5252L26.1209 33.8918C26.3902 33.8283 26.6302 33.6757 26.8019 33.4588C26.9737 33.2418 27.0672 32.9733 27.0673 32.6966V18.6578C27.0674 18.4927 27.0341 18.3292 26.9695 18.1772C26.9048 18.0252 26.8101 17.8879 26.6911 17.7734V17.7748Z" fill="url(#paint2_linear_356_1615)"/>
<path d="M13.7338 17.7754V36.7805C13.6394 36.7805 13.545 36.7699 13.452 36.7481L1.3468 33.8925C1.07748 33.829 0.8375 33.6764 0.66573 33.4595C0.49396 33.2425 0.400464 32.974 0.400391 32.6973L0.400391 18.6584C0.400391 18.3159 0.542266 18.0011 0.775234 17.7754H13.7338Z" fill="url(#paint3_linear_356_1615)"/>
<path d="M13.7338 17.7754V36.7805C13.6394 36.7805 13.545 36.7699 13.452 36.7481L1.3468 33.8925C1.07748 33.829 0.8375 33.6764 0.66573 33.4595C0.49396 33.2425 0.400464 32.974 0.400391 32.6973L0.400391 18.6584C0.400391 18.3159 0.542266 18.0011 0.775234 17.7754H13.7338Z" fill="url(#paint4_linear_356_1615)"/>
<path d="M13.7338 28.125V36.7805C13.6394 36.7805 13.545 36.7699 13.452 36.7481L1.3468 33.8925C1.07748 33.829 0.8375 33.6764 0.66573 33.4595C0.49396 33.2425 0.400464 32.974 0.400391 32.6973L0.400391 25.1426L12.3729 27.9666C12.8189 28.0718 13.2755 28.125 13.7338 28.125Z" fill="url(#paint5_linear_356_1615)"/>
<path d="M13.7344 28.1251V36.7805C13.8288 36.7805 13.9231 36.77 14.0162 36.7482L26.1213 33.8925C26.3906 33.829 26.6306 33.6764 26.8024 33.4595C26.9742 33.2426 27.0677 32.974 27.0677 32.6973V25.1426L15.0952 27.9667C14.6493 28.0719 14.1926 28.1251 13.7344 28.1251Z" fill="url(#paint6_linear_356_1615)"/>
<path d="M26.6916 17.7748L14.444 20.6642C13.9774 20.7744 13.4916 20.7744 13.0251 20.6642L0.777344 17.7748C0.935774 17.6216 1.13248 17.5138 1.34687 17.4626L13.4527 14.6069C13.638 14.5633 13.8309 14.5633 14.0162 14.6069L18.5364 15.6734V16.2179H20.8456L26.122 17.4625C26.3364 17.5137 26.5332 17.6216 26.6916 17.7748Z" fill="url(#paint7_linear_356_1615)"/>
<path d="M18.5364 15.6735V16.2179L6.35672 19.0914L0.777344 17.7748C0.935774 17.6216 1.13248 17.5138 1.34687 17.4626L13.4527 14.6069C13.638 14.5633 13.8309 14.5633 14.0162 14.6069L18.5364 15.6735Z" fill="url(#paint8_linear_356_1615)"/>
<path d="M18.5357 15.6738L5.45742 18.7595C5.38474 18.7766 5.31998 18.8178 5.27362 18.8763C5.22727 18.9349 5.20204 19.0074 5.20203 19.082L5.20117 23.1841C5.20117 23.2735 5.26266 23.3512 5.34961 23.3717L7.27414 23.8253C7.30242 23.832 7.33185 23.8322 7.36021 23.8259C7.38858 23.8195 7.41515 23.8069 7.43793 23.7889C7.46072 23.7708 7.47913 23.7479 7.49178 23.7217C7.50444 23.6956 7.51101 23.6669 7.51102 23.6378V19.6038C7.51101 19.5356 7.53402 19.4695 7.5763 19.4161C7.61859 19.3627 7.67767 19.3251 7.74398 19.3095L20.8448 16.2188L18.5357 15.6738Z" fill="url(#paint9_linear_356_1615)"/>
<path d="M11.4246 18.4416L7.74461 19.3095C7.69196 19.322 7.64364 19.3484 7.60469 19.386L5.30469 18.8435C5.34731 18.8022 5.40017 18.7731 5.45781 18.7591L9.11406 17.8965L11.4246 18.4416Z" fill="url(#paint10_linear_356_1615)"/>
<path d="M5.30422 18.8438L7.60352 19.3862C7.57427 19.4145 7.55101 19.4483 7.53513 19.4857C7.51925 19.5232 7.51108 19.5634 7.51109 19.6041V23.6378C7.51116 23.6669 7.50462 23.6956 7.49198 23.7218C7.47934 23.748 7.46092 23.771 7.4381 23.789C7.41529 23.8071 7.38868 23.8197 7.36028 23.826C7.33188 23.8322 7.30243 23.832 7.27414 23.8252L5.34969 23.3719C5.30745 23.3619 5.2698 23.338 5.24285 23.304C5.2159 23.27 5.20121 23.2279 5.20117 23.1845L5.2018 19.0821C5.20179 19.0375 5.21087 18.9934 5.22848 18.9524C5.24608 18.9114 5.27186 18.8744 5.30422 18.8438Z" fill="url(#paint11_linear_356_1615)"/>
<path d="M5.20148 21.2091L5.20117 23.1842C5.20117 23.2734 5.26258 23.3512 5.34969 23.3716L7.27414 23.825C7.30243 23.8318 7.33189 23.832 7.3603 23.8258C7.3887 23.8195 7.41532 23.8069 7.43813 23.7888C7.46095 23.7708 7.47937 23.7478 7.49201 23.7216C7.50465 23.6954 7.51117 23.6667 7.51109 23.6376V21.209H5.20148V21.2091Z" fill="url(#paint12_linear_356_1615)"/>
<path d="M1.86016 32.1323L7.16641 33.3841C7.2075 33.3938 7.25026 33.3941 7.29148 33.3849C7.3327 33.3758 7.37131 33.3574 7.40442 33.3312C7.43753 33.305 7.46428 33.2716 7.48267 33.2336C7.50107 33.1956 7.51062 33.1539 7.51062 33.1117V30.1976C7.51063 30.1345 7.48935 30.0733 7.45021 30.0238C7.41107 29.9744 7.35638 29.9396 7.295 29.9251L1.98875 28.6735C1.94765 28.6638 1.9049 28.6635 1.86368 28.6727C1.82246 28.6819 1.78385 28.7002 1.75074 28.7264C1.71763 28.7526 1.69087 28.786 1.67248 28.824C1.65409 28.862 1.64453 28.9037 1.64453 28.9459V31.8599C1.64452 31.923 1.66581 31.9842 1.70495 32.0336C1.74409 32.0831 1.79878 32.1179 1.86016 32.1323Z" fill="url(#paint13_linear_356_1615)"/>
<path d="M1.64453 29.7715V31.8593C1.64452 31.9224 1.66581 31.9836 1.70495 32.033C1.74409 32.0825 1.79878 32.1172 1.86016 32.1317L7.16641 33.3835C7.2075 33.3932 7.25026 33.3935 7.29148 33.3843C7.3327 33.3752 7.37131 33.3568 7.40442 33.3306C7.43753 33.3044 7.46428 33.271 7.48267 33.233C7.50107 33.195 7.51062 33.1533 7.51062 33.1111V31.1553L1.64453 29.7715Z" fill="url(#paint14_linear_356_1615)"/>
<path d="M7.29617 29.9247L4.60156 29.2891V32.7784L7.16766 33.3837C7.20875 33.3934 7.25151 33.3937 7.29273 33.3846C7.33395 33.3754 7.37256 33.357 7.40567 33.3308C7.43878 33.3046 7.46553 33.2712 7.48392 33.2332C7.50232 33.1952 7.51187 33.1536 7.51187 33.1113V30.1971C7.51185 30.134 7.49054 30.0728 7.45139 30.0234C7.41224 29.9739 7.35755 29.9392 7.29617 29.9247Z" fill="url(#paint15_linear_356_1615)"/>
<path d="M15.8418 32.6752V32.6812C15.8418 32.72 15.8506 32.7584 15.8675 32.7933C15.8844 32.8283 15.909 32.859 15.9395 32.8831C15.9699 32.9072 16.0055 32.9241 16.0434 32.9325C16.0813 32.941 16.1206 32.9407 16.1584 32.9318L19.9664 32.0336C20.0229 32.0203 20.0732 31.9883 20.1092 31.9428C20.1452 31.8973 20.1648 31.841 20.1648 31.783V31.777C20.1648 31.7382 20.1561 31.6999 20.1391 31.6649C20.1222 31.6299 20.0976 31.5992 20.0672 31.5751C20.0367 31.551 20.0012 31.5341 19.9633 31.5257C19.9253 31.5172 19.886 31.5175 19.8482 31.5264L16.0402 32.4246C15.9838 32.4379 15.9334 32.4699 15.8974 32.5154C15.8614 32.5609 15.8418 32.6172 15.8418 32.6752Z" fill="url(#paint16_linear_356_1615)"/>
<path d="M16.1584 33.9403L18.0566 33.4927C18.113 33.4793 18.1633 33.4473 18.1994 33.4019C18.2354 33.3564 18.255 33.3001 18.255 33.242V33.236C18.255 33.1972 18.2462 33.1588 18.2293 33.1239C18.2124 33.0889 18.1878 33.0582 18.1573 33.0341C18.1269 33.01 18.0913 32.9931 18.0534 32.9847C18.0155 32.9762 17.9762 32.9765 17.9384 32.9854L16.0402 33.4331C15.9838 33.4465 15.9334 33.4784 15.8974 33.5239C15.8614 33.5694 15.8418 33.6257 15.8418 33.6838V33.6898C15.8418 33.7286 15.8506 33.7669 15.8675 33.8019C15.8844 33.8369 15.9091 33.8675 15.9395 33.8916C15.97 33.9157 16.0055 33.9326 16.0434 33.9411C16.0813 33.9495 16.1206 33.9492 16.1584 33.9403Z" fill="url(#paint17_linear_356_1615)"/>
<path d="M40.4011 21.8026V35.8414C40.4011 36.4109 40.0091 36.9059 39.4547 37.0367L27.3495 39.8923C27.1642 39.9358 26.9713 39.9358 26.7859 39.8923L14.6808 37.0366C14.4115 36.9731 14.1715 36.8205 13.9997 36.6036C13.8279 36.3866 13.7344 36.118 13.7344 35.8413V21.8026C13.7344 21.4601 13.8763 21.1452 14.1092 20.9195H40.0248V20.9182C40.2592 21.1439 40.4011 21.4594 40.4011 21.8026Z" fill="url(#paint18_linear_356_1615)"/>
<path d="M40.0251 20.9195H32.5312V38.6699L39.4548 37.0366C39.7242 36.9731 39.9642 36.8205 40.1359 36.6036C40.3077 36.3866 40.4012 36.118 40.4013 35.8413V21.8026C40.4014 21.6374 40.3681 21.474 40.3035 21.322C40.2388 21.17 40.1441 21.0327 40.0251 20.9182V20.9195Z" fill="url(#paint19_linear_356_1615)"/>
<path d="M27.0677 20.9199V39.925C26.9734 39.925 26.879 39.9145 26.7859 39.8927L14.6808 37.037C14.4115 36.9735 14.1715 36.8209 13.9997 36.6039C13.8279 36.387 13.7344 36.1184 13.7344 35.8417V21.803C13.7344 21.4605 13.8763 21.1456 14.1092 20.9199H27.0677Z" fill="url(#paint20_linear_356_1615)"/>
<path d="M27.0677 20.9199V39.925C26.9734 39.925 26.879 39.9145 26.7859 39.8927L14.6808 37.037C14.4115 36.9735 14.1715 36.8209 13.9997 36.6039C13.8279 36.387 13.7344 36.1184 13.7344 35.8417V21.803C13.7344 21.4605 13.8763 21.1456 14.1092 20.9199H27.0677Z" fill="url(#paint21_linear_356_1615)"/>
<path d="M27.0677 31.2696V39.9251C26.9734 39.9251 26.879 39.9145 26.7859 39.8927L14.6808 37.037C14.4115 36.9735 14.1715 36.821 13.9997 36.604C13.8279 36.3871 13.7344 36.1185 13.7344 35.8418V28.2871L25.7069 31.1111C26.1528 31.2164 26.6095 31.2696 27.0677 31.2696Z" fill="url(#paint22_linear_356_1615)"/>
<path d="M27.0664 31.2696V39.9251C27.1608 39.9251 27.2552 39.9145 27.3482 39.8927L39.4534 37.037C39.7227 36.9735 39.9627 36.821 40.1344 36.604C40.3062 36.3871 40.3997 36.1185 40.3998 35.8418V28.2871L28.4273 31.1111C27.9813 31.2164 27.5246 31.2696 27.0664 31.2696Z" fill="url(#paint23_linear_356_1615)"/>
<path d="M40.0236 20.9191L27.7759 23.8085C27.3094 23.9187 26.8236 23.9187 26.357 23.8085L14.1094 20.9191C14.2678 20.7659 14.4645 20.658 14.6789 20.6069L26.7847 17.7512C26.97 17.7076 27.1629 17.7076 27.3483 17.7512L31.8684 18.8177V19.3621H34.1777L39.4541 20.6068C39.6685 20.658 39.8652 20.7658 40.0236 20.9191Z" fill="url(#paint24_linear_356_1615)"/>
<path d="M40.0236 20.9191L27.7759 23.8085C27.3094 23.9187 26.8236 23.9187 26.357 23.8085L14.1094 20.9191C14.2678 20.7659 14.4645 20.658 14.6789 20.6069L26.7847 17.7512C26.97 17.7076 27.1629 17.7076 27.3483 17.7512L31.8684 18.8177V19.3621H34.1777L39.4541 20.6068C39.6685 20.658 39.8652 20.7658 40.0236 20.9191Z" fill="url(#paint25_linear_356_1615)"/>
<path d="M31.8684 18.8178V19.3622L19.6887 22.2357L14.1094 20.9191C14.2678 20.7659 14.4645 20.658 14.6789 20.6069L26.7847 17.7512C26.97 17.7076 27.1629 17.7076 27.3483 17.7512L31.8684 18.8178Z" fill="url(#paint26_linear_356_1615)"/>
<path d="M31.8698 18.8164L18.7914 21.902C18.7187 21.9192 18.654 21.9604 18.6076 22.0189C18.5613 22.0775 18.536 22.1499 18.536 22.2246L18.5352 26.3267C18.5352 26.4161 18.5966 26.4938 18.6836 26.5143L20.6081 26.9679C20.6364 26.9746 20.6658 26.9747 20.6942 26.9684C20.7226 26.9621 20.7491 26.9495 20.7719 26.9314C20.7947 26.9134 20.8131 26.8904 20.8258 26.8643C20.8384 26.8381 20.845 26.8095 20.845 26.7804V22.7463C20.845 22.6782 20.868 22.6121 20.9103 22.5587C20.9526 22.5052 21.0117 22.4677 21.078 22.452L34.1788 19.3614L31.8698 18.8164Z" fill="url(#paint27_linear_356_1615)"/>
<path d="M31.8688 18.8164L18.7906 21.9016C18.7313 21.9156 18.6781 21.9453 18.6367 21.9859L20.9359 22.5289C20.9742 22.4914 21.0219 22.4648 21.0766 22.4516L34.1773 19.3609L31.8688 18.8164Z" fill="url(#paint28_linear_356_1615)"/>
<path d="M24.7566 21.5861L21.0766 22.454C21.024 22.4665 20.9757 22.493 20.9367 22.5305L18.6367 21.988C18.6793 21.9468 18.7322 21.9176 18.7898 21.9036L22.4461 21.041L24.7566 21.5861Z" fill="url(#paint29_linear_356_1615)"/>
<path d="M18.6382 21.9883L20.9375 22.5308C20.9083 22.559 20.885 22.5929 20.8691 22.6303C20.8532 22.6677 20.8451 22.7079 20.8451 22.7486V26.7823C20.8452 26.8114 20.8386 26.8402 20.826 26.8664C20.8134 26.8926 20.7949 26.9156 20.7721 26.9336C20.7493 26.9516 20.7227 26.9643 20.6943 26.9705C20.6659 26.9768 20.6364 26.9765 20.6081 26.9698L18.6837 26.5164C18.6414 26.5065 18.6038 26.4825 18.5768 26.4485C18.5499 26.4145 18.5352 26.3724 18.5352 26.329L18.5358 22.2266C18.5358 22.182 18.5449 22.1379 18.5625 22.0969C18.5801 22.0559 18.6058 22.019 18.6382 21.9883Z" fill="url(#paint30_linear_356_1615)"/>
<path d="M18.5355 24.3536L18.5352 26.3287C18.5352 26.4179 18.5966 26.4957 18.6837 26.5162L20.6081 26.9695C20.6364 26.9763 20.6659 26.9766 20.6943 26.9703C20.7227 26.964 20.7493 26.9514 20.7721 26.9334C20.7949 26.9153 20.8134 26.8923 20.826 26.8661C20.8386 26.8399 20.8452 26.8112 20.8451 26.7821V24.3535H18.5355V24.3536Z" fill="url(#paint31_linear_356_1615)"/>
<path d="M15.1941 35.2769L20.5004 36.5287C20.5415 36.5384 20.5842 36.5386 20.6255 36.5295C20.6667 36.5203 20.7053 36.5019 20.7384 36.4757C20.7715 36.4495 20.7983 36.4162 20.8167 36.3781C20.8351 36.3401 20.8446 36.2985 20.8446 36.2562V33.3421C20.8446 33.279 20.8233 33.2178 20.7842 33.1684C20.7451 33.1189 20.6904 33.0841 20.629 33.0697L15.3227 31.818C15.2816 31.8083 15.2389 31.8081 15.1977 31.8172C15.1564 31.8264 15.1178 31.8448 15.0847 31.871C15.0516 31.8972 15.0249 31.9305 15.0065 31.9685C14.9881 32.0066 14.9785 32.0482 14.9785 32.0905V35.0044C14.9785 35.0675 14.9998 35.1287 15.0389 35.1782C15.0781 35.2276 15.1328 35.2624 15.1941 35.2769Z" fill="url(#paint32_linear_356_1615)"/>
<path d="M14.9785 32.916V35.0038C14.9785 35.0669 14.9998 35.1281 15.0389 35.1776C15.0781 35.227 15.1328 35.2618 15.1941 35.2762L20.5004 36.528C20.5415 36.5377 20.5842 36.538 20.6255 36.5289C20.6667 36.5197 20.7053 36.5013 20.7384 36.4751C20.7715 36.4489 20.7983 36.4155 20.8167 36.3775C20.8351 36.3395 20.8446 36.2979 20.8446 36.2556V34.2998L14.9785 32.916Z" fill="url(#paint33_linear_356_1615)"/>
<path d="M20.6282 33.0692L17.9336 32.4336V35.9229L20.4997 36.5283C20.5408 36.538 20.5835 36.5383 20.6248 36.5291C20.666 36.5199 20.7046 36.5015 20.7377 36.4753C20.7708 36.4491 20.7976 36.4158 20.816 36.3778C20.8343 36.3398 20.8439 36.2981 20.8439 36.2559V33.3416C20.8439 33.2786 20.8226 33.2174 20.7834 33.1679C20.7443 33.1185 20.6896 33.0837 20.6282 33.0692Z" fill="url(#paint34_linear_356_1615)"/>
<path d="M29.1738 35.8198V35.8257C29.1738 35.8646 29.1826 35.9029 29.1995 35.9379C29.2164 35.9728 29.2411 36.0035 29.2715 36.0276C29.302 36.0517 29.3375 36.0686 29.3754 36.0771C29.4133 36.0855 29.4527 36.0853 29.4905 36.0763L33.2984 35.1781C33.3549 35.1648 33.4052 35.1328 33.4412 35.0873C33.4773 35.0418 33.4969 34.9855 33.4969 34.9275V34.9216C33.4969 34.8827 33.4881 34.8444 33.4712 34.8094C33.4543 34.7745 33.4296 34.7438 33.3992 34.7197C33.3687 34.6955 33.3332 34.6786 33.2953 34.6702C33.2574 34.6618 33.218 34.662 33.1802 34.6709L29.3723 35.5691C29.3158 35.5824 29.2654 35.6144 29.2294 35.6599C29.1934 35.7054 29.1738 35.7617 29.1738 35.8198Z" fill="url(#paint35_linear_356_1615)"/>
<path d="M29.4905 37.0829L31.3886 36.6352C31.4451 36.6219 31.4954 36.5899 31.5314 36.5444C31.5674 36.499 31.587 36.4426 31.587 36.3846V36.3786C31.587 36.3398 31.5782 36.3014 31.5613 36.2664C31.5444 36.2315 31.5198 36.2008 31.4893 36.1767C31.4589 36.1526 31.4234 36.1357 31.3854 36.1272C31.3475 36.1188 31.3082 36.1191 31.2704 36.128L29.3723 36.5757C29.3158 36.589 29.2655 36.621 29.2295 36.6665C29.1934 36.712 29.1738 36.7683 29.1738 36.8263V36.8324C29.1738 36.8712 29.1826 36.9095 29.1996 36.9445C29.2165 36.9794 29.2411 37.0101 29.2715 37.0342C29.302 37.0583 29.3375 37.0752 29.3754 37.0836C29.4133 37.0921 29.4527 37.0918 29.4905 37.0829Z" fill="url(#paint36_linear_356_1615)"/>
<path d="M33.3425 4.15781V18.1966C33.3425 18.7662 32.9505 19.2612 32.3961 19.3919L20.2909 22.2476C20.1056 22.2911 19.9127 22.2911 19.7273 22.2476L7.62219 19.3919C7.35287 19.3284 7.11288 19.1758 6.9411 18.9589C6.76933 18.7419 6.67584 18.4733 6.67578 18.1966V4.15781C6.67578 3.81531 6.81766 3.50047 7.05062 3.27477H32.9663V3.27344C33.0853 3.3879 33.18 3.52524 33.2447 3.67721C33.3093 3.82919 33.3426 3.99266 33.3425 4.15781Z" fill="url(#paint37_linear_356_1615)"/>
<path d="M32.9665 3.27484H25.4727V21.0252L32.3962 19.3919C32.6656 19.3284 32.9056 19.1758 33.0773 18.9589C33.2491 18.7419 33.3426 18.4733 33.3427 18.1966V4.15781C33.3428 3.99266 33.3095 3.82919 33.2449 3.67722C33.1802 3.52525 33.0855 3.38791 32.9665 3.27344V3.27484Z" fill="url(#paint38_linear_356_1615)"/>
<path d="M20.0091 3.27547V22.2805C19.9148 22.2805 19.8204 22.27 19.7273 22.2482L7.62219 19.3925C7.35287 19.329 7.11288 19.1764 6.9411 18.9595C6.76933 18.7426 6.67584 18.474 6.67578 18.1973V4.15844C6.67578 3.81594 6.81766 3.50109 7.05062 3.27539L20.0091 3.27547Z" fill="url(#paint39_linear_356_1615)"/>
<path d="M20.0091 13.6251V22.2805C19.9148 22.2805 19.8204 22.27 19.7273 22.2482L7.62219 19.3925C7.35287 19.329 7.11288 19.1764 6.9411 18.9595C6.76933 18.7426 6.67584 18.474 6.67578 18.1973V10.6426L18.6483 13.4666C19.0942 13.5719 19.5509 13.6251 20.0091 13.6251Z" fill="url(#paint40_linear_356_1615)"/>
<path d="M20.0098 13.6251V22.2805C20.1041 22.2805 20.1985 22.27 20.2916 22.2482L32.3967 19.3925C32.666 19.329 32.906 19.1764 33.0778 18.9595C33.2496 18.7426 33.3431 18.474 33.3431 18.1973V10.6426L21.3706 13.4666C20.9247 13.5719 20.468 13.6251 20.0098 13.6251Z" fill="url(#paint41_linear_356_1615)"/>
<path d="M32.967 3.27481L20.7194 6.16418C20.2528 6.27441 19.767 6.27441 19.3005 6.16418L7.05273 3.27481C7.21116 3.12158 7.40787 3.01375 7.62226 2.96262L19.728 0.106915C19.9134 0.06332 20.1063 0.06332 20.2916 0.106915L24.8118 1.1734V1.71785H27.121L32.3974 2.96254C32.6119 3.01365 32.8086 3.12151 32.967 3.27481Z" fill="url(#paint42_linear_356_1615)"/>
<path d="M24.8118 1.1734V1.71785L12.6321 4.59137L7.05273 3.27481C7.21116 3.12158 7.40787 3.01375 7.62227 2.96262L19.728 0.106915C19.9134 0.06332 20.1063 0.06332 20.2916 0.106915L24.8118 1.1734Z" fill="url(#paint43_linear_356_1615)"/>
<path d="M24.8112 1.17188L11.7328 4.2575C11.6601 4.27464 11.5954 4.31582 11.549 4.37437C11.5027 4.43292 11.4774 4.5054 11.4774 4.58008L11.4766 8.68219C11.4766 8.77156 11.538 8.84922 11.625 8.86977L13.5495 9.32336C13.5778 9.33003 13.6072 9.33022 13.6356 9.3239C13.664 9.31759 13.6905 9.30494 13.7133 9.28691C13.7361 9.26887 13.7545 9.24592 13.7672 9.21976C13.7798 9.1936 13.7864 9.16492 13.7864 9.13586V5.1018C13.7864 5.03367 13.8094 4.96754 13.8517 4.91412C13.894 4.8607 13.9531 4.82313 14.0194 4.8075L27.1202 1.71688L24.8112 1.17188Z" fill="url(#paint44_linear_356_1615)"/>
<path d="M17.7 3.94156L14.02 4.80945C13.9674 4.822 13.919 4.84844 13.8801 4.88602L11.5801 4.34352C11.6227 4.30224 11.6756 4.27309 11.7332 4.25906L15.3895 3.39648L17.7 3.94156Z" fill="url(#paint45_linear_356_1615)"/>
<path d="M11.5796 4.3418L13.8789 4.8843C13.8497 4.91253 13.8264 4.94637 13.8105 4.98379C13.7946 5.02122 13.7865 5.06146 13.7865 5.10211V9.13586C13.7866 9.16495 13.78 9.19368 13.7674 9.21988C13.7548 9.24608 13.7363 9.26907 13.7135 9.28712C13.6907 9.30516 13.6641 9.31779 13.6357 9.32406C13.6073 9.33032 13.5778 9.33006 13.5495 9.32328L11.6251 8.86992C11.5828 8.85997 11.5452 8.83604 11.5182 8.80203C11.4913 8.76801 11.4766 8.7259 11.4766 8.6825L11.4772 4.58016C11.4772 4.53555 11.4863 4.49142 11.5039 4.45044C11.5215 4.40946 11.5472 4.37249 11.5796 4.3418Z" fill="url(#paint46_linear_356_1615)"/>
<path d="M11.4769 6.70703L11.4766 8.68219C11.4766 8.77133 11.538 8.84914 11.6251 8.86961L13.5495 9.32297C13.5778 9.32974 13.6073 9.33001 13.6357 9.32375C13.6641 9.31748 13.6907 9.30485 13.7135 9.2868C13.7363 9.26876 13.7548 9.24577 13.7674 9.21957C13.78 9.19336 13.7866 9.16464 13.7865 9.13555V6.70703H11.4769Z" fill="url(#paint47_linear_356_1615)"/>
<path d="M8.13555 17.6323L13.4418 18.8841C13.4829 18.8938 13.5257 18.8941 13.5669 18.8849C13.6081 18.8758 13.6467 18.8574 13.6798 18.8312C13.7129 18.805 13.7397 18.7716 13.7581 18.7336C13.7765 18.6956 13.786 18.6539 13.786 18.6117V15.6976C13.786 15.6345 13.7647 15.5733 13.7256 15.5238C13.6865 15.4744 13.6318 15.4396 13.5704 15.4251L8.26414 14.1735C8.22304 14.1638 8.18029 14.1635 8.13907 14.1727C8.09785 14.1819 8.05924 14.2002 8.02613 14.2264C7.99302 14.2526 7.96626 14.286 7.94787 14.324C7.92948 14.362 7.91992 14.4037 7.91992 14.4459V17.3599C7.91988 17.423 7.94116 17.4842 7.98031 17.5337C8.01945 17.5831 8.07415 17.6179 8.13555 17.6323Z" fill="url(#paint48_linear_356_1615)"/>
<path d="M7.91992 15.2715V17.3593C7.91991 17.4224 7.9412 17.4836 7.98034 17.533C8.01948 17.5825 8.07417 17.6172 8.13555 17.6317L13.4418 18.8835C13.4829 18.8932 13.5257 18.8935 13.5669 18.8843C13.6081 18.8752 13.6467 18.8568 13.6798 18.8306C13.7129 18.8044 13.7397 18.771 13.7581 18.733C13.7765 18.695 13.786 18.6533 13.786 18.6111V16.6553L7.91992 15.2715Z" fill="url(#paint49_linear_356_1615)"/>
<path d="M13.5716 15.4244L10.877 14.7888V18.2781L13.443 18.8835C13.4841 18.8932 13.5269 18.8935 13.5681 18.8843C13.6093 18.8751 13.6479 18.8568 13.6811 18.8306C13.7142 18.8044 13.7409 18.771 13.7593 18.733C13.7777 18.695 13.7873 18.6533 13.7873 18.6111V15.6969C13.7873 15.6338 13.766 15.5726 13.7268 15.5231C13.6877 15.4737 13.633 15.4389 13.5716 15.4244Z" fill="url(#paint50_linear_356_1615)"/>
<path d="M22.1172 18.1755V18.1814C22.1172 18.2203 22.126 18.2586 22.1429 18.2936C22.1598 18.3285 22.1844 18.3592 22.2149 18.3833C22.2453 18.4074 22.2809 18.4244 22.3188 18.4328C22.3567 18.4412 22.396 18.441 22.4338 18.432L26.2418 17.5338C26.2983 17.5205 26.3486 17.4885 26.3846 17.443C26.4206 17.3976 26.4402 17.3412 26.4402 17.2832V17.2773C26.4402 17.2384 26.4314 17.2001 26.4145 17.1651C26.3976 17.1302 26.373 17.0995 26.3425 17.0754C26.3121 17.0513 26.2766 17.0344 26.2387 17.0259C26.2007 17.0175 26.1614 17.0177 26.1236 17.0267L22.3156 17.9249C22.2591 17.9382 22.2088 17.9701 22.1728 18.0156C22.1368 18.0611 22.1172 18.1175 22.1172 18.1755Z" fill="url(#paint51_linear_356_1615)"/>
<path d="M22.4338 19.4384L24.332 18.9907C24.3884 18.9774 24.4387 18.9454 24.4748 18.8999C24.5108 18.8544 24.5304 18.7981 24.5304 18.7401V18.7341C24.5304 18.6952 24.5216 18.6569 24.5047 18.6219C24.4878 18.587 24.4632 18.5563 24.4327 18.5322C24.4022 18.508 24.3667 18.4911 24.3288 18.4827C24.2909 18.4743 24.2516 18.4745 24.2138 18.4834L22.3156 18.9312C22.2592 18.9445 22.2088 18.9765 22.1728 19.022C22.1368 19.0675 22.1172 19.1238 22.1172 19.1818V19.1878C22.1172 19.2267 22.126 19.265 22.1429 19.2999C22.1598 19.3349 22.1844 19.3656 22.2149 19.3897C22.2454 19.4138 22.2809 19.4307 22.3188 19.4391C22.3567 19.4475 22.396 19.4473 22.4338 19.4384Z" fill="url(#paint52_linear_356_1615)"/>
</g>
<defs>
<linearGradient id="paint0_linear_356_1615" x1="2.07609" y1="16.3355" x2="25.3173" y2="34.9662" gradientUnits="userSpaceOnUse">
<stop stop-color="#FEA613"/>
<stop offset="1" stop-color="#C4573A"/>
</linearGradient>
<linearGradient id="paint1_linear_356_1615" x1="12.2334" y1="21.1516" x2="13.861" y2="21.1516" gradientUnits="userSpaceOnUse">
<stop stop-color="#C4573A" stop-opacity="0"/>
<stop offset="0.235" stop-color="#BE5539" stop-opacity="0.235"/>
<stop offset="0.539" stop-color="#AE4E35" stop-opacity="0.539"/>
<stop offset="0.879" stop-color="#934330" stop-opacity="0.879"/>
<stop offset="1" stop-color="#883F2E"/>
</linearGradient>
<linearGradient id="paint2_linear_356_1615" x1="22.9141" y1="26.6493" x2="27.4345" y2="26.6493" gradientUnits="userSpaceOnUse">
<stop stop-color="#C4573A" stop-opacity="0"/>
<stop offset="0.235" stop-color="#BE5539" stop-opacity="0.235"/>
<stop offset="0.539" stop-color="#AE4E35" stop-opacity="0.539"/>
<stop offset="0.879" stop-color="#934330" stop-opacity="0.879"/>
<stop offset="1" stop-color="#883F2E"/>
</linearGradient>
<linearGradient id="paint3_linear_356_1615" x1="6.06195" y1="24.2101" x2="15.5891" y2="35.9954" gradientUnits="userSpaceOnUse">
<stop stop-color="#C4573A" stop-opacity="0"/>
<stop offset="0.235" stop-color="#BE5539" stop-opacity="0.235"/>
<stop offset="0.539" stop-color="#AE4E35" stop-opacity="0.539"/>
<stop offset="0.879" stop-color="#934330" stop-opacity="0.879"/>
<stop offset="1" stop-color="#883F2E"/>
</linearGradient>
<linearGradient id="paint4_linear_356_1615" x1="9.52063" y1="24.492" x2="13.9483" y2="19.0619" gradientUnits="userSpaceOnUse">
<stop stop-color="#C4573A" stop-opacity="0"/>
<stop offset="0.235" stop-color="#BE5539" stop-opacity="0.235"/>
<stop offset="0.539" stop-color="#AE4E35" stop-opacity="0.539"/>
<stop offset="0.879" stop-color="#934330" stop-opacity="0.879"/>
<stop offset="1" stop-color="#883F2E"/>
</linearGradient>
<linearGradient id="paint5_linear_356_1615" x1="6.77734" y1="32.4584" x2="6.21281" y2="35.3754" gradientUnits="userSpaceOnUse">
<stop stop-color="#C4573A" stop-opacity="0"/>
<stop offset="0.235" stop-color="#BE5539" stop-opacity="0.235"/>
<stop offset="0.539" stop-color="#AE4E35" stop-opacity="0.539"/>
<stop offset="0.879" stop-color="#934330" stop-opacity="0.879"/>
<stop offset="1" stop-color="#883F2E"/>
</linearGradient>
<linearGradient id="paint6_linear_356_1615" x1="20.6907" y1="32.4585" x2="21.2553" y2="35.3755" gradientUnits="userSpaceOnUse">
<stop stop-color="#C4573A" stop-opacity="0"/>
<stop offset="0.235" stop-color="#BE5539" stop-opacity="0.235"/>
<stop offset="0.539" stop-color="#AE4E35" stop-opacity="0.539"/>
<stop offset="0.879" stop-color="#934330" stop-opacity="0.879"/>
<stop offset="1" stop-color="#883F2E"/>
</linearGradient>
<linearGradient id="paint7_linear_356_1615" x1="13.6458" y1="16.5917" x2="13.9986" y2="21.2964" gradientUnits="userSpaceOnUse">
<stop stop-color="#FEA613"/>
<stop offset="1" stop-color="#C4573A"/>
</linearGradient>
<linearGradient id="paint8_linear_356_1615" x1="9.68336" y1="16.8348" x2="9.94211" y2="17.9169" gradientUnits="userSpaceOnUse">
<stop stop-color="#C4573A" stop-opacity="0"/>
<stop offset="0.235" stop-color="#BE5539" stop-opacity="0.235"/>
<stop offset="0.539" stop-color="#AE4E35" stop-opacity="0.539"/>
<stop offset="0.879" stop-color="#934330" stop-opacity="0.879"/>
<stop offset="1" stop-color="#883F2E"/>
</linearGradient>
<linearGradient id="paint9_linear_356_1615" x1="11.3966" y1="15.759" x2="13.2315" y2="20.2285" gradientUnits="userSpaceOnUse">
<stop stop-color="#FEF0AE"/>
<stop offset="1" stop-color="#FAC600"/>
</linearGradient>
<linearGradient id="paint10_linear_356_1615" x1="8.36469" y1="18.4802" x2="8.36469" y2="19.5102" gradientUnits="userSpaceOnUse">
<stop stop-color="#FE9738" stop-opacity="0"/>
<stop offset="1" stop-color="#FE9738"/>
</linearGradient>
<linearGradient id="paint11_linear_356_1615" x1="6.94148" y1="21.3372" x2="7.65344" y2="21.3372" gradientUnits="userSpaceOnUse">
<stop stop-color="#FE9738" stop-opacity="0"/>
<stop offset="1" stop-color="#FE9738"/>
</linearGradient>
<linearGradient id="paint12_linear_356_1615" x1="6.28031" y1="22.8623" x2="6.13922" y2="23.662" gradientUnits="userSpaceOnUse">
<stop stop-color="#FE9738" stop-opacity="0"/>
<stop offset="1" stop-color="#FE9738"/>
</linearGradient>
<linearGradient id="paint13_linear_356_1615" x1="2.89141" y1="28.1248" x2="6.16555" y2="33.7635" gradientUnits="userSpaceOnUse">
<stop stop-color="#F5FBFF"/>
<stop offset="1" stop-color="#DBD5EF"/>
</linearGradient>
<linearGradient id="paint14_linear_356_1615" x1="4.54383" y1="31.6047" x2="4.29367" y2="32.696" gradientUnits="userSpaceOnUse">
<stop stop-color="#DBD5EF" stop-opacity="0"/>
<stop offset="0.285" stop-color="#D9D2EE" stop-opacity="0.285"/>
<stop offset="0.474" stop-color="#D4C9E9" stop-opacity="0.474"/>
<stop offset="0.635" stop-color="#CBBAE2" stop-opacity="0.635"/>
<stop offset="0.779" stop-color="#BFA5D7" stop-opacity="0.78"/>
<stop offset="0.913" stop-color="#AF8ACA" stop-opacity="0.913"/>
<stop offset="1" stop-color="#A274BF"/>
</linearGradient>
<linearGradient id="paint15_linear_356_1615" x1="6.67055" y1="31.3402" x2="7.52281" y2="31.3402" gradientUnits="userSpaceOnUse">
<stop stop-color="#DBD5EF" stop-opacity="0"/>
<stop offset="0.285" stop-color="#D9D2EE" stop-opacity="0.285"/>
<stop offset="0.474" stop-color="#D4C9E9" stop-opacity="0.474"/>
<stop offset="0.635" stop-color="#CBBAE2" stop-opacity="0.635"/>
<stop offset="0.779" stop-color="#BFA5D7" stop-opacity="0.78"/>
<stop offset="0.913" stop-color="#AF8ACA" stop-opacity="0.913"/>
<stop offset="1" stop-color="#A274BF"/>
</linearGradient>
<linearGradient id="paint16_linear_356_1615" x1="16.9816" y1="30.1671" x2="18.7066" y2="33.6487" gradientUnits="userSpaceOnUse">
<stop stop-color="#5A5A5A"/>
<stop offset="1" stop-color="#444444"/>
</linearGradient>
<linearGradient id="paint17_linear_356_1615" x1="15.7246" y1="30.7913" x2="17.4497" y2="34.2728" gradientUnits="userSpaceOnUse">
<stop stop-color="#5A5A5A"/>
<stop offset="1" stop-color="#444444"/>
</linearGradient>
<linearGradient id="paint18_linear_356_1615" x1="15.4101" y1="19.4802" x2="38.6514" y2="38.1109" gradientUnits="userSpaceOnUse">
<stop stop-color="#FEA613"/>
<stop offset="1" stop-color="#C4573A"/>
</linearGradient>
<linearGradient id="paint19_linear_356_1615" x1="36.248" y1="29.7941" x2="40.7684" y2="29.7941" gradientUnits="userSpaceOnUse">
<stop stop-color="#C4573A" stop-opacity="0"/>
<stop offset="0.235" stop-color="#BE5539" stop-opacity="0.235"/>
<stop offset="0.539" stop-color="#AE4E35" stop-opacity="0.539"/>
<stop offset="0.879" stop-color="#934330" stop-opacity="0.879"/>
<stop offset="1" stop-color="#883F2E"/>
</linearGradient>
<linearGradient id="paint20_linear_356_1615" x1="19.396" y1="27.3545" x2="28.923" y2="39.1398" gradientUnits="userSpaceOnUse">
<stop stop-color="#C4573A" stop-opacity="0"/>
<stop offset="0.235" stop-color="#BE5539" stop-opacity="0.235"/>
<stop offset="0.539" stop-color="#AE4E35" stop-opacity="0.539"/>
<stop offset="0.879" stop-color="#934330" stop-opacity="0.879"/>
<stop offset="1" stop-color="#883F2E"/>
</linearGradient>
<linearGradient id="paint21_linear_356_1615" x1="20.8486" y1="31.3842" x2="18.5095" y2="15.9294" gradientUnits="userSpaceOnUse">
<stop stop-color="#C4573A" stop-opacity="0"/>
<stop offset="0.235" stop-color="#BE5539" stop-opacity="0.235"/>
<stop offset="0.539" stop-color="#AE4E35" stop-opacity="0.539"/>
<stop offset="0.879" stop-color="#934330" stop-opacity="0.879"/>
<stop offset="1" stop-color="#883F2E"/>
</linearGradient>
<linearGradient id="paint22_linear_356_1615" x1="20.1114" y1="35.603" x2="19.5468" y2="38.5199" gradientUnits="userSpaceOnUse">
<stop stop-color="#C4573A" stop-opacity="0"/>
<stop offset="0.235" stop-color="#BE5539" stop-opacity="0.235"/>
<stop offset="0.539" stop-color="#AE4E35" stop-opacity="0.539"/>
<stop offset="0.879" stop-color="#934330" stop-opacity="0.879"/>
<stop offset="1" stop-color="#883F2E"/>
</linearGradient>
<linearGradient id="paint23_linear_356_1615" x1="34.0228" y1="35.603" x2="34.5874" y2="38.5199" gradientUnits="userSpaceOnUse">
<stop stop-color="#C4573A" stop-opacity="0"/>
<stop offset="0.235" stop-color="#BE5539" stop-opacity="0.235"/>
<stop offset="0.539" stop-color="#AE4E35" stop-opacity="0.539"/>
<stop offset="0.879" stop-color="#934330" stop-opacity="0.879"/>
<stop offset="1" stop-color="#883F2E"/>
</linearGradient>
<linearGradient id="paint24_linear_356_1615" x1="26.9777" y1="19.7359" x2="27.3305" y2="24.4406" gradientUnits="userSpaceOnUse">
<stop stop-color="#FEA613"/>
<stop offset="1" stop-color="#C4573A"/>
</linearGradient>
<linearGradient id="paint25_linear_356_1615" x1="28.0563" y1="23.9185" x2="26.831" y2="20.2056" gradientUnits="userSpaceOnUse">
<stop stop-color="#C4573A" stop-opacity="0"/>
<stop offset="0.235" stop-color="#BE5539" stop-opacity="0.235"/>
<stop offset="0.539" stop-color="#AE4E35" stop-opacity="0.539"/>
<stop offset="0.879" stop-color="#934330" stop-opacity="0.879"/>
<stop offset="1" stop-color="#883F2E"/>
</linearGradient>
<linearGradient id="paint26_linear_356_1615" x1="23.0154" y1="19.9791" x2="23.2741" y2="21.0612" gradientUnits="userSpaceOnUse">
<stop stop-color="#C4573A" stop-opacity="0"/>
<stop offset="0.235" stop-color="#BE5539" stop-opacity="0.235"/>
<stop offset="0.539" stop-color="#AE4E35" stop-opacity="0.539"/>
<stop offset="0.879" stop-color="#934330" stop-opacity="0.879"/>
<stop offset="1" stop-color="#883F2E"/>
</linearGradient>
<linearGradient id="paint27_linear_356_1615" x1="24.7306" y1="18.9016" x2="26.5655" y2="23.371" gradientUnits="userSpaceOnUse">
<stop stop-color="#FEF0AE"/>
<stop offset="1" stop-color="#FAC600"/>
</linearGradient>
<linearGradient id="paint28_linear_356_1615" x1="26.7393" y1="22.0855" x2="26.368" y2="20.5076" gradientUnits="userSpaceOnUse">
<stop stop-color="#FE9738" stop-opacity="0"/>
<stop offset="1" stop-color="#FE9738"/>
</linearGradient>
<linearGradient id="paint29_linear_356_1615" x1="21.6967" y1="21.6248" x2="21.6967" y2="22.6548" gradientUnits="userSpaceOnUse">
<stop stop-color="#FE9738" stop-opacity="0"/>
<stop offset="1" stop-color="#FE9738"/>
</linearGradient>
<linearGradient id="paint30_linear_356_1615" x1="20.2755" y1="24.4817" x2="20.9875" y2="24.4817" gradientUnits="userSpaceOnUse">
<stop stop-color="#FE9738" stop-opacity="0"/>
<stop offset="1" stop-color="#FE9738"/>
</linearGradient>
<linearGradient id="paint31_linear_356_1615" x1="19.6144" y1="26.0067" x2="19.4732" y2="26.8066" gradientUnits="userSpaceOnUse">
<stop stop-color="#FE9738" stop-opacity="0"/>
<stop offset="1" stop-color="#FE9738"/>
</linearGradient>
<linearGradient id="paint32_linear_356_1615" x1="16.2254" y1="31.2693" x2="19.4995" y2="36.908" gradientUnits="userSpaceOnUse">
<stop stop-color="#F5FBFF"/>
<stop offset="1" stop-color="#DBD5EF"/>
</linearGradient>
<linearGradient id="paint33_linear_356_1615" x1="17.8778" y1="34.7491" x2="17.6277" y2="35.8405" gradientUnits="userSpaceOnUse">
<stop stop-color="#DBD5EF" stop-opacity="0"/>
<stop offset="0.285" stop-color="#D9D2EE" stop-opacity="0.285"/>
<stop offset="0.474" stop-color="#D4C9E9" stop-opacity="0.474"/>
<stop offset="0.635" stop-color="#CBBAE2" stop-opacity="0.635"/>
<stop offset="0.779" stop-color="#BFA5D7" stop-opacity="0.78"/>
<stop offset="0.913" stop-color="#AF8ACA" stop-opacity="0.913"/>
<stop offset="1" stop-color="#A274BF"/>
</linearGradient>
<linearGradient id="paint34_linear_356_1615" x1="20.0026" y1="34.4848" x2="20.8548" y2="34.4848" gradientUnits="userSpaceOnUse">
<stop stop-color="#DBD5EF" stop-opacity="0"/>
<stop offset="0.285" stop-color="#D9D2EE" stop-opacity="0.285"/>
<stop offset="0.474" stop-color="#D4C9E9" stop-opacity="0.474"/>
<stop offset="0.635" stop-color="#CBBAE2" stop-opacity="0.635"/>
<stop offset="0.779" stop-color="#BFA5D7" stop-opacity="0.78"/>
<stop offset="0.913" stop-color="#AF8ACA" stop-opacity="0.913"/>
<stop offset="1" stop-color="#A274BF"/>
</linearGradient>
<linearGradient id="paint35_linear_356_1615" x1="30.3136" y1="33.3116" x2="32.0387" y2="36.7931" gradientUnits="userSpaceOnUse">
<stop stop-color="#5A5A5A"/>
<stop offset="1" stop-color="#444444"/>
</linearGradient>
<linearGradient id="paint36_linear_356_1615" x1="29.0567" y1="33.9338" x2="30.7818" y2="37.4153" gradientUnits="userSpaceOnUse">
<stop stop-color="#5A5A5A"/>
<stop offset="1" stop-color="#444444"/>
</linearGradient>
<linearGradient id="paint37_linear_356_1615" x1="8.35148" y1="1.83555" x2="31.5928" y2="20.4663" gradientUnits="userSpaceOnUse">
<stop stop-color="#FEA613"/>
<stop offset="1" stop-color="#C4573A"/>
</linearGradient>
<linearGradient id="paint38_linear_356_1615" x1="29.1894" y1="12.1494" x2="33.7098" y2="12.1494" gradientUnits="userSpaceOnUse">
<stop stop-color="#C4573A" stop-opacity="0"/>
<stop offset="0.235" stop-color="#BE5539" stop-opacity="0.235"/>
<stop offset="0.539" stop-color="#AE4E35" stop-opacity="0.539"/>
<stop offset="0.879" stop-color="#934330" stop-opacity="0.879"/>
<stop offset="1" stop-color="#883F2E"/>
</linearGradient>
<linearGradient id="paint39_linear_356_1615" x1="12.3374" y1="9.71008" x2="21.8645" y2="21.4954" gradientUnits="userSpaceOnUse">
<stop stop-color="#C4573A" stop-opacity="0"/>
<stop offset="0.235" stop-color="#BE5539" stop-opacity="0.235"/>
<stop offset="0.539" stop-color="#AE4E35" stop-opacity="0.539"/>
<stop offset="0.879" stop-color="#934330" stop-opacity="0.879"/>
<stop offset="1" stop-color="#883F2E"/>
</linearGradient>
<linearGradient id="paint40_linear_356_1615" x1="13.0528" y1="17.9584" x2="12.4882" y2="20.8754" gradientUnits="userSpaceOnUse">
<stop stop-color="#C4573A" stop-opacity="0"/>
<stop offset="0.235" stop-color="#BE5539" stop-opacity="0.235"/>
<stop offset="0.539" stop-color="#AE4E35" stop-opacity="0.539"/>
<stop offset="0.879" stop-color="#934330" stop-opacity="0.879"/>
<stop offset="1" stop-color="#883F2E"/>
</linearGradient>
<linearGradient id="paint41_linear_356_1615" x1="26.9662" y1="17.9584" x2="27.5307" y2="20.8754" gradientUnits="userSpaceOnUse">
<stop stop-color="#C4573A" stop-opacity="0"/>
<stop offset="0.235" stop-color="#BE5539" stop-opacity="0.235"/>
<stop offset="0.539" stop-color="#AE4E35" stop-opacity="0.539"/>
<stop offset="0.879" stop-color="#934330" stop-opacity="0.879"/>
<stop offset="1" stop-color="#883F2E"/>
</linearGradient>
<linearGradient id="paint42_linear_356_1615" x1="19.9211" y1="2.0916" x2="20.274" y2="6.79629" gradientUnits="userSpaceOnUse">
<stop stop-color="#FEA613"/>
<stop offset="1" stop-color="#C4573A"/>
</linearGradient>
<linearGradient id="paint43_linear_356_1615" x1="15.9587" y1="2.33481" x2="16.2175" y2="3.41684" gradientUnits="userSpaceOnUse">
<stop stop-color="#C4573A" stop-opacity="0"/>
<stop offset="0.235" stop-color="#BE5539" stop-opacity="0.235"/>
<stop offset="0.539" stop-color="#AE4E35" stop-opacity="0.539"/>
<stop offset="0.879" stop-color="#934330" stop-opacity="0.879"/>
<stop offset="1" stop-color="#883F2E"/>
</linearGradient>
<linearGradient id="paint44_linear_356_1615" x1="17.672" y1="1.25703" x2="19.5069" y2="5.72649" gradientUnits="userSpaceOnUse">
<stop stop-color="#FEF0AE"/>
<stop offset="1" stop-color="#FAC600"/>
</linearGradient>
<linearGradient id="paint45_linear_356_1615" x1="14.6401" y1="3.98023" x2="14.6401" y2="5.01023" gradientUnits="userSpaceOnUse">
<stop stop-color="#FE9738" stop-opacity="0"/>
<stop offset="1" stop-color="#FE9738"/>
</linearGradient>
<linearGradient id="paint46_linear_356_1615" x1="13.217" y1="6.83516" x2="13.9289" y2="6.83516" gradientUnits="userSpaceOnUse">
<stop stop-color="#FE9738" stop-opacity="0"/>
<stop offset="1" stop-color="#FE9738"/>
</linearGradient>
<linearGradient id="paint47_linear_356_1615" x1="12.5558" y1="8.36016" x2="12.4146" y2="9.15992" gradientUnits="userSpaceOnUse">
<stop stop-color="#FE9738" stop-opacity="0"/>
<stop offset="1" stop-color="#FE9738"/>
</linearGradient>
<linearGradient id="paint48_linear_356_1615" x1="9.1668" y1="13.6248" x2="12.4409" y2="19.2636" gradientUnits="userSpaceOnUse">
<stop stop-color="#F5FBFF"/>
<stop offset="1" stop-color="#DBD5EF"/>
</linearGradient>
<linearGradient id="paint49_linear_356_1615" x1="10.8192" y1="17.1047" x2="10.5691" y2="18.1961" gradientUnits="userSpaceOnUse">
<stop stop-color="#DBD5EF" stop-opacity="0"/>
<stop offset="0.285" stop-color="#D9D2EE" stop-opacity="0.285"/>
<stop offset="0.474" stop-color="#D4C9E9" stop-opacity="0.474"/>
<stop offset="0.635" stop-color="#CBBAE2" stop-opacity="0.635"/>
<stop offset="0.779" stop-color="#BFA5D7" stop-opacity="0.78"/>
<stop offset="0.913" stop-color="#AF8ACA" stop-opacity="0.913"/>
<stop offset="1" stop-color="#A274BF"/>
</linearGradient>
<linearGradient id="paint50_linear_356_1615" x1="12.946" y1="16.84" x2="13.7983" y2="16.84" gradientUnits="userSpaceOnUse">
<stop stop-color="#DBD5EF" stop-opacity="0"/>
<stop offset="0.285" stop-color="#D9D2EE" stop-opacity="0.285"/>
<stop offset="0.474" stop-color="#D4C9E9" stop-opacity="0.474"/>
<stop offset="0.635" stop-color="#CBBAE2" stop-opacity="0.635"/>
<stop offset="0.779" stop-color="#BFA5D7" stop-opacity="0.78"/>
<stop offset="0.913" stop-color="#AF8ACA" stop-opacity="0.913"/>
<stop offset="1" stop-color="#A274BF"/>
</linearGradient>
<linearGradient id="paint51_linear_356_1615" x1="23.257" y1="15.6674" x2="24.982" y2="19.1489" gradientUnits="userSpaceOnUse">
<stop stop-color="#5A5A5A"/>
<stop offset="1" stop-color="#444444"/>
</linearGradient>
<linearGradient id="paint52_linear_356_1615" x1="22.0001" y1="16.2893" x2="23.7252" y2="19.7708" gradientUnits="userSpaceOnUse">
<stop stop-color="#5A5A5A"/>
<stop offset="1" stop-color="#444444"/>
</linearGradient>
<clipPath id="clip0_356_1615">
<rect width="40" height="40" fill="white" transform="translate(0.400391)"/>
</clipPath>
</defs>
</svg>
