<svg width="41" height="40" viewBox="0 0 41 40" fill="none" xmlns="http://www.w3.org/2000/svg">
<g clip-path="url(#clip0_356_1677)">
<path d="M17.3436 33.5134C26.4799 33.5134 33.8864 26.1069 33.8864 16.9705C33.8864 7.8342 26.4799 0.427734 17.3436 0.427734C8.20725 0.427734 0.800781 7.8342 0.800781 16.9705C0.800781 26.1069 8.20725 33.5134 17.3436 33.5134Z" fill="#365E7D"/>
<path d="M33.8858 16.9705C33.8858 7.83422 26.4793 0.427734 17.343 0.427734C16.971 0.427734 16.6022 0.44125 16.2363 0.465469C24.4713 1.00953 31.059 7.57875 31.6313 15.8059C31.6702 16.3648 31.212 16.8271 30.6517 16.8152C30.5656 16.8133 30.4795 16.8124 30.3934 16.8124C23.5706 16.8124 18.0396 22.3434 18.0396 29.1663C18.0396 29.807 18.0886 30.4362 18.1828 31.0505C18.3691 32.2647 17.487 33.3912 16.2614 33.4741L16.2363 33.4757C16.6022 33.4998 16.971 33.5134 17.343 33.5134C26.5333 33.5134 33.8858 26.0459 33.8858 16.9705Z" fill="#2B4D66"/>
<path d="M17.3433 29.669C24.3566 29.669 30.042 23.9836 30.042 16.9702C30.042 9.95691 24.3566 4.27148 17.3433 4.27148C10.33 4.27148 4.64453 9.95691 4.64453 16.9702C4.64453 23.9836 10.33 29.669 17.3433 29.669Z" fill="#F4FBFF"/>
<path d="M30.0429 16.9702C30.0429 9.95695 24.3575 4.27148 17.3441 4.27148C17.0001 4.27148 16.6594 4.28563 16.3223 4.3125C22.882 4.83492 28.0373 10.3417 27.9989 17.0447L27.9982 17.0455C22.6398 18.099 18.6434 22.5664 18.1033 27.8973C18.0104 28.8137 17.2927 29.5466 16.3748 29.6236L16.3223 29.6279C23.7167 30.2171 30.0429 24.3914 30.0429 16.9702Z" fill="#DAF1F4"/>
<path d="M17.3441 8.20109C17.2649 8.2011 17.1864 8.1855 17.1131 8.15517C17.0399 8.12484 16.9734 8.08038 16.9173 8.02433C16.8613 7.96828 16.8168 7.90173 16.7865 7.8285C16.7561 7.75526 16.7405 7.67677 16.7405 7.5975V6.74422C16.7405 6.66495 16.7561 6.58646 16.7865 6.51322C16.8168 6.43999 16.8613 6.37344 16.9173 6.31739C16.9734 6.26134 17.0399 6.21688 17.1131 6.18655C17.1864 6.15622 17.2649 6.14061 17.3441 6.14063C17.4234 6.14061 17.5019 6.15622 17.5751 6.18655C17.6484 6.21688 17.7149 6.26134 17.771 6.31739C17.827 6.37344 17.8715 6.43999 17.9018 6.51322C17.9321 6.58646 17.9477 6.66495 17.9477 6.74422V7.5975C17.9477 7.67677 17.9321 7.75526 17.9018 7.8285C17.8715 7.90173 17.827 7.96828 17.771 8.02433C17.7149 8.08038 17.6484 8.12484 17.5751 8.15517C17.5019 8.1855 17.4234 8.2011 17.3441 8.20109ZM23.9723 10.9466C23.8529 10.9466 23.7361 10.9112 23.6368 10.8449C23.5375 10.7785 23.4602 10.6842 23.4145 10.5739C23.3688 10.4636 23.3568 10.3422 23.3802 10.2251C23.4035 10.108 23.461 10.0004 23.5455 9.91602L24.1488 9.31273C24.2625 9.20154 24.4154 9.13966 24.5743 9.14052C24.7333 9.14139 24.8855 9.20494 24.9979 9.31736C25.1104 9.42979 25.1739 9.58202 25.1747 9.741C25.1756 9.89999 25.1136 10.0529 25.0024 10.1665L24.3991 10.7698C24.3431 10.8259 24.2765 10.8704 24.2033 10.9007C24.1301 10.9311 24.0515 10.9467 23.9723 10.9466ZM27.571 17.5747H26.7177C26.5577 17.5747 26.4041 17.5111 26.2909 17.3979C26.1777 17.2847 26.1141 17.1312 26.1141 16.9711C26.1141 16.811 26.1777 16.6575 26.2909 16.5443C26.4041 16.4311 26.5577 16.3675 26.7177 16.3675H27.5711C27.7312 16.3675 27.8847 16.4311 27.9979 16.5443C28.1111 16.6575 28.1747 16.8111 28.1746 16.9711C28.1746 17.1312 28.111 17.2847 27.9978 17.3979C27.8846 17.5111 27.7311 17.5747 27.571 17.5747ZM17.5924 28.0498C17.5132 28.0499 17.4347 28.0342 17.3614 28.0039C17.2882 27.9736 17.2216 27.9291 17.1656 27.8731C17.1095 27.817 17.0651 27.7505 17.0348 27.6772C17.0044 27.604 16.9888 27.5255 16.9888 27.4463V26.5929C16.9888 26.5136 17.0044 26.4351 17.0348 26.3619C17.0651 26.2887 17.1095 26.2221 17.1656 26.1661C17.2216 26.11 17.2882 26.0656 17.3614 26.0352C17.4347 26.0049 17.5132 25.9893 17.5924 25.9893C17.6717 25.9893 17.7502 26.0049 17.8234 26.0352C17.8967 26.0656 17.9632 26.11 18.0193 26.1661C18.0753 26.2221 18.1198 26.2887 18.1501 26.3619C18.1804 26.4351 18.196 26.5136 18.196 26.5929V27.4463C18.196 27.5255 18.1804 27.604 18.1501 27.6772C18.1198 27.7505 18.0753 27.817 18.0193 27.8731C17.9632 27.9291 17.8967 27.9736 17.8234 28.0039C17.7502 28.0342 17.6717 28.0499 17.5924 28.0498ZM10.1127 24.8062C9.99329 24.8061 9.87662 24.7707 9.77739 24.7043C9.67816 24.638 9.60082 24.5437 9.55514 24.4334C9.50946 24.3231 9.49749 24.2018 9.52074 24.0847C9.544 23.9676 9.60143 23.8601 9.68578 23.7756L10.2891 23.1723C10.4024 23.0591 10.5559 22.9955 10.716 22.9955C10.8761 22.9955 11.0296 23.0591 11.1429 23.1723C11.2561 23.2855 11.3197 23.439 11.3197 23.5991C11.3197 23.7592 11.2561 23.9128 11.1429 24.026L10.5395 24.6294C10.4835 24.6855 10.417 24.73 10.3437 24.7604C10.2705 24.7907 10.1919 24.8063 10.1127 24.8062ZM7.97055 17.5747H7.11727C6.95718 17.5747 6.80366 17.5111 6.69046 17.3979C6.57726 17.2847 6.51367 17.1312 6.51367 16.9711C6.51367 16.811 6.57726 16.6575 6.69046 16.5443C6.80366 16.4311 6.95718 16.3675 7.11727 16.3675H7.97063C8.13071 16.3675 8.28423 16.4311 8.39742 16.5443C8.51061 16.6575 8.57419 16.8111 8.57418 16.9711C8.57417 17.1312 8.51057 17.2847 8.39736 17.3979C8.28416 17.5111 8.13063 17.5747 7.97055 17.5747ZM10.716 10.9466C10.6367 10.9467 10.5582 10.9311 10.485 10.9007C10.4117 10.8704 10.3452 10.8259 10.2892 10.7698L9.68586 10.1665C9.57265 10.0533 9.50903 9.89976 9.50902 9.73967C9.50901 9.66039 9.52462 9.5819 9.55495 9.50866C9.58528 9.43542 9.62973 9.36887 9.68578 9.31281C9.74183 9.25675 9.80837 9.21228 9.8816 9.18194C9.95484 9.1516 10.0333 9.13598 10.1126 9.13597C10.2727 9.13596 10.4262 9.19954 10.5395 9.31273L11.1428 9.91602C11.2273 10.0004 11.2848 10.108 11.3081 10.2251C11.3314 10.3422 11.3195 10.4636 11.2738 10.5739C11.2281 10.6842 11.1507 10.7785 11.0515 10.8449C10.9522 10.9112 10.8354 10.9466 10.716 10.9466Z" fill="#365E7D"/>
<path d="M17.3431 17.822C17.1857 17.8221 17.0346 17.7607 16.9218 17.6509L14.7989 15.5836C14.6862 15.4715 14.6223 15.3194 14.6211 15.1605C14.6199 15.0015 14.6814 14.8485 14.7923 14.7346C14.9032 14.6207 15.0545 14.5552 15.2134 14.5522C15.3723 14.5492 15.526 14.609 15.6411 14.7187L16.7393 15.788V11.5059C16.7393 11.4267 16.7549 11.3482 16.7853 11.2749C16.8156 11.2017 16.86 11.1352 16.9161 11.0791C16.9721 11.0231 17.0387 10.9786 17.1119 10.9483C17.1852 10.9179 17.2637 10.9023 17.3429 10.9023C17.4222 10.9023 17.5007 10.9179 17.5739 10.9483C17.6472 10.9786 17.7137 11.0231 17.7697 11.0791C17.8258 11.1352 17.8703 11.2017 17.9006 11.2749C17.9309 11.3482 17.9465 11.4267 17.9465 11.5059V17.2184C17.9465 17.3784 17.8829 17.5319 17.7698 17.6451C17.6566 17.7583 17.5031 17.822 17.3431 17.822Z" fill="#2B4D66"/>
<path d="M30.395 39.5732C36.1425 39.5732 40.8017 34.914 40.8017 29.1665C40.8017 23.419 36.1425 18.7598 30.395 18.7598C24.6475 18.7598 19.9883 23.419 19.9883 29.1665C19.9883 34.914 24.6475 39.5732 30.395 39.5732Z" fill="#EAB14D"/>
<path d="M30.393 18.7598C29.9879 18.7598 29.5884 18.7838 29.1953 18.8288C34.3785 19.4229 38.4043 23.8242 38.4043 29.1665C38.4043 34.5087 34.3785 38.9101 29.1953 39.5041C29.5884 39.5492 29.9879 39.5732 30.393 39.5732C36.1405 39.5732 40.7998 34.914 40.7998 29.1665C40.7998 23.4191 36.1405 18.7598 30.393 18.7598Z" fill="#E49542"/>
<path d="M30.2034 31.4073C29.5366 31.4073 28.9961 30.8667 28.9961 30.2V22.9924C28.9961 22.3257 29.5366 21.7852 30.2034 21.7852C30.8701 21.7852 31.4106 22.3257 31.4106 22.9924V30.2001C31.4105 30.8668 30.8701 31.4073 30.2034 31.4073ZM30.2034 36.0752C29.5366 36.0752 28.9961 35.5346 28.9961 34.8679V34.0989C28.9961 33.4322 29.5366 32.8916 30.2034 32.8916C30.8701 32.8916 31.4106 33.4322 31.4106 34.0989V34.8679C31.4105 35.5346 30.8701 36.0752 30.2034 36.0752Z" fill="#F4FBFF"/>
<path d="M30.2032 21.7852C29.983 21.7852 29.7773 21.8451 29.5996 21.948C29.9601 22.1568 30.2032 22.5458 30.2032 22.9924V30.2001C30.2032 30.6466 29.9601 31.0357 29.5996 31.2445C29.7829 31.3512 29.9912 31.4073 30.2032 31.4073C30.8699 31.4073 31.4105 30.8668 31.4105 30.2001V22.9924C31.4104 22.3257 30.8699 21.7852 30.2032 21.7852ZM30.2032 32.8916C29.983 32.8916 29.7773 32.9516 29.5996 33.0545C29.9601 33.2633 30.2032 33.6523 30.2032 34.0989V34.8679C30.2032 35.3145 29.9601 35.7035 29.5996 35.9123C29.7829 36.019 29.9912 36.0751 30.2032 36.0752C30.8699 36.0752 31.4105 35.5346 31.4105 34.8679V34.0989C31.4104 33.4322 30.8699 32.8916 30.2032 32.8916Z" fill="#DAF1F4"/>
</g>
<defs>
<clipPath id="clip0_356_1677">
<rect width="40" height="40" fill="white" transform="translate(0.800781)"/>
</clipPath>
</defs>
</svg>
