<svg width="57" height="57" viewBox="0 0 57 57" fill="none" xmlns="http://www.w3.org/2000/svg">
<g clip-path="url(#clip0_366_4942)">
<path d="M56.6665 28.5C56.6665 13.036 44.1305 0.5 28.6665 0.5C13.2025 0.5 0.666504 13.036 0.666504 28.5C0.666504 43.964 13.2025 56.5 28.6665 56.5C44.1305 56.5 56.6665 43.964 56.6665 28.5Z" fill="#0098FF"/>
<path d="M21.1817 22.9994L12.622 25.2262C11.5643 25.5008 10.5165 24.7504 10.4367 23.6611L9.78918 14.8389C9.73449 14.0995 10.5679 13.6314 11.1717 14.0634L13.7103 15.8812C20.2739 8.15279 31.779 6.62592 40.1681 12.6361C43.48 15.0073 45.8359 18.2164 47.155 21.7689C47.517 22.7445 46.9614 23.8208 45.9529 24.08L42.9703 24.8478C42.1106 25.0687 41.229 24.6083 40.9009 23.7825C40.004 21.5239 38.4706 19.4884 36.3487 17.9692C30.9062 14.07 23.4982 14.9264 19.0707 19.7214L21.4726 21.4419C22.0764 21.8739 21.9014 22.8134 21.1839 23.0004L21.1817 22.9994ZM44.7115 31.7734L36.1518 34.0003C35.4332 34.1873 35.2593 35.1269 35.8631 35.5589L38.265 37.2794C33.8364 42.0744 26.4295 42.9308 20.987 39.0315C18.8651 37.5123 17.3306 35.4769 16.4348 33.2183C16.1067 32.3925 15.2262 31.9309 14.3654 32.1529L11.3828 32.9208C10.3743 33.18 9.81871 34.2562 10.1807 35.2319C11.4998 38.7833 13.8557 41.9923 17.1676 44.3647C25.5567 50.3748 37.0618 48.849 43.6254 41.1195L46.164 42.9373C46.7667 43.3694 47.6001 42.9023 47.5465 42.1619L46.899 33.3397C46.8192 32.2503 45.7714 31.4989 44.7137 31.7745L44.7115 31.7734Z" fill="white"/>
</g>
<defs>
<clipPath id="clip0_366_4942">
<rect width="56" height="56" fill="white" transform="translate(0.666504 0.5)"/>
</clipPath>
</defs>
</svg>
