<svg width="57" height="57" viewBox="0 0 57 57" fill="none" xmlns="http://www.w3.org/2000/svg">
<g clip-path="url(#clip0_366_4951)">
<path d="M40.979 25.3387V25.9725C40.979 26.7491 41.1042 27.5207 41.3498 28.2575L42.7854 32.5644H45.4951V22.6289H43.6887C42.1922 22.629 40.979 23.8421 40.979 25.3387Z" fill="#5A4146"/>
<path d="M53.3454 27.2147L51.817 32.5642L44.5911 26.2417C43.5934 26.2417 42.7847 25.4329 42.7847 24.4352C42.7847 22.9388 43.9979 21.7256 45.4943 21.7256H51.8169C52.8146 21.7256 53.6233 22.5344 53.6233 23.532V25.2297C53.6233 25.9011 53.5298 26.5692 53.3454 27.2147Z" fill="#694B4B"/>
<path d="M44.5913 35.2744H50.0106V39.272H44.5913V35.2744Z" fill="#E6AF78"/>
<path d="M44.5913 36.933C45.429 37.2734 46.3425 37.465 47.301 37.465C48.2594 37.465 49.1729 37.2734 50.0106 36.933V35.2739H44.5913V36.933Z" fill="#D29B6E"/>
<path d="M54.3682 38.7104L50.0107 37.4654L47.3012 39.2635L44.5916 37.4653L40.2343 38.7104C39.6681 38.8721 39.17 39.2139 38.8154 39.684C38.4608 40.1541 38.269 40.7269 38.269 41.3158V47.9194C38.269 48.1589 38.3642 48.3887 38.5336 48.5581C38.703 48.7275 38.9327 48.8226 39.1723 48.8226H55.4303C55.6699 48.8226 55.8996 48.7275 56.069 48.5581C56.2384 48.3887 56.3335 48.1589 56.3335 47.9194V41.3158C56.3335 40.7269 56.1417 40.1541 55.7871 39.684C55.4325 39.2139 54.9344 38.8721 54.3682 38.7104Z" fill="#D5DCED"/>
<path d="M48.2044 48.8222H46.3979L46.8496 39.2715H47.7528L48.2044 48.8222Z" fill="#AFB9D2"/>
<path d="M47.3016 36.1774C44.3086 36.1774 41.8823 33.751 41.8823 30.758V29.6998C41.8823 29.2208 42.0726 28.7613 42.4114 28.4225L44.0493 26.7846C44.3961 26.4377 44.8703 26.2383 45.3606 26.2538C48.2478 26.3449 50.8035 26.9634 52.2005 28.3278C52.5426 28.6619 52.7211 29.1291 52.7211 29.6071V30.758C52.7211 33.7511 50.2947 36.1774 47.3016 36.1774Z" fill="#F0C087"/>
<path d="M44.592 29.924C44.592 28.882 45.467 28.0539 46.5068 28.1201C48.3302 28.2365 51.0359 28.5412 52.6959 29.3397C52.6418 28.9586 52.478 28.5989 52.2005 28.3278C50.8035 26.9634 48.2478 26.3449 45.3606 26.2538L45.3604 26.2539C44.8703 26.2384 44.396 26.4378 44.0493 26.7846L42.4115 28.4223C42.2437 28.5901 42.1106 28.7892 42.0198 29.0084C41.929 29.2276 41.8823 29.4625 41.8823 29.6997V30.7579C41.8823 33.2294 43.5384 35.3102 45.8001 35.9619C45.0473 35.0331 44.5921 33.854 44.5921 32.5644L44.592 29.924Z" fill="#E6AF78"/>
<path d="M52.7202 44.0071C52.7202 43.2884 53.0057 42.5993 53.5138 42.0911L55.8388 39.7661C56.1496 40.2103 56.3331 40.745 56.3331 41.3158V47.9195C56.3331 48.159 56.2379 48.3888 56.0685 48.5581C55.8992 48.7275 55.6694 48.8227 55.4299 48.8227H52.7202V44.0071Z" fill="#C7CFE2"/>
<path d="M47.7528 41.0779H46.8496C46.7298 41.0779 46.6149 41.0303 46.5303 40.9456C46.4456 40.8609 46.398 40.7461 46.3979 40.6263V39.2715H48.2044V40.6263C48.2044 40.6856 48.1927 40.7443 48.17 40.7991C48.1473 40.8539 48.114 40.9037 48.0721 40.9456C48.0302 40.9876 47.9804 41.0208 47.9256 41.0435C47.8708 41.0662 47.8121 41.0779 47.7528 41.0779Z" fill="#959CB5"/>
<path d="M47.3009 39.2635L45.7699 40.4328C45.7079 40.4802 45.6363 40.5137 45.5602 40.5308C45.484 40.548 45.405 40.5485 45.3286 40.5323C45.2523 40.5162 45.1803 40.4837 45.1176 40.4371C45.055 40.3905 45.0031 40.3309 44.9656 40.2624L43.5923 37.7545L44.1451 36.9113C44.1739 36.8673 44.2119 36.8302 44.2565 36.8025C44.3012 36.7747 44.3513 36.7571 44.4035 36.7507C44.4556 36.7443 44.5086 36.7494 44.5586 36.7656C44.6085 36.7818 44.6544 36.8087 44.6929 36.8445L47.3009 39.2635ZM47.3009 39.2635L48.8318 40.4329C48.8938 40.4803 48.9654 40.5138 49.0416 40.5309C49.1177 40.5481 49.1967 40.5486 49.2731 40.5325C49.3495 40.5163 49.4215 40.4838 49.4841 40.4372C49.5468 40.3906 49.5986 40.331 49.6361 40.2625L51.0094 37.7546L50.4567 36.9114C50.4279 36.8674 50.3898 36.8303 50.3452 36.8026C50.3006 36.7748 50.2504 36.7572 50.1982 36.7508C50.1461 36.7444 50.0932 36.7495 50.0432 36.7657C49.9932 36.7819 49.9473 36.8088 49.9088 36.8446L47.3009 39.2635Z" fill="#C7CFE2"/>
<path d="M16.502 35.8001C15.7301 33.755 15.118 30.2393 14.9857 28.409C14.7342 24.9258 12.1093 22.0864 8.56093 22.0864C5.01259 22.0864 2.3877 24.9259 2.13613 28.409C2.0039 30.2392 1.39173 33.755 0.619868 35.8001C0.44979 36.2509 0.646118 36.748 1.09007 36.9493C1.91716 37.3241 3.68062 38.0585 5.80741 38.3445H11.3143C13.4312 38.0578 15.207 37.323 16.0317 36.9493C16.4757 36.748 16.6721 36.2509 16.502 35.8001Z" fill="#5A4146"/>
<path d="M16.0317 36.9493C16.4755 36.748 16.672 36.2509 16.5018 35.8001C15.73 33.755 15.1177 30.2393 14.9856 28.409C14.7342 24.9258 12.1092 22.0864 8.56092 22.0864L8.53413 22.0865C5.81146 22.0976 4.84928 25.8108 7.19308 27.1962C7.33385 27.2794 7.42408 27.3195 7.42408 27.3195L9.47694 38.3445H11.3143C13.4312 38.0576 15.207 37.3229 16.0317 36.9493Z" fill="#694B4B"/>
<path d="M15.0937 40.1581L12.1707 38.6968C11.8706 38.5467 11.6182 38.3161 11.4419 38.0307C11.2655 37.7453 11.1721 37.4164 11.1721 37.0809L11.1723 34.3711H5.75281V37.081C5.75281 37.4164 5.65939 37.7453 5.48302 38.0307C5.30664 38.316 5.05428 38.5466 4.75421 38.6967L1.83128 40.1581C1.3812 40.3831 1.00269 40.729 0.738142 41.1571C0.473598 41.5851 0.333482 42.0784 0.333496 42.5815L0.333496 47.9193C0.333496 48.1588 0.428656 48.3886 0.598043 48.5579C0.767429 48.7273 0.997166 48.8225 1.23671 48.8225H15.6883C15.9279 48.8225 16.1576 48.7273 16.327 48.5579C16.4964 48.3886 16.5915 48.1588 16.5915 47.9193V42.5817C16.5915 42.0784 16.4514 41.5852 16.1868 41.1571C15.9223 40.7291 15.5437 40.3832 15.0937 40.1581Z" fill="#E6AF78"/>
<path d="M8.46216 37.9835C9.43472 37.9835 10.3663 37.783 11.2203 37.4261C11.1978 37.3122 11.1717 37.199 11.1717 37.0804L11.1719 34.3706H5.75239V37.0805C5.75239 37.1998 5.72625 37.3136 5.70361 37.4279C6.55816 37.7829 7.48927 37.9835 8.46216 37.9835Z" fill="#D29B6E"/>
<path d="M15.0937 40.158L13.0114 39.1168C12.0458 40.6078 10.3712 41.5967 8.46257 41.5967C6.55398 41.5967 4.87923 40.6078 3.91367 39.1167L1.83139 40.158C1.3813 40.383 1.00277 40.7289 0.738205 41.1569C0.473643 41.5849 0.333505 42.0782 0.333496 42.5814L0.333496 47.9191C0.333496 48.1586 0.428656 48.3884 0.598043 48.5578C0.767429 48.7271 0.997166 48.8223 1.23671 48.8223H15.6883C15.9279 48.8223 16.1576 48.7271 16.327 48.5578C16.4964 48.3884 16.5915 48.1586 16.5915 47.9191V42.5815C16.5915 42.0783 16.4514 41.585 16.1868 41.1569C15.9223 40.7289 15.5437 40.383 15.0937 40.158Z" fill="#D5DCED"/>
<path d="M8.46294 36.1771C5.70757 36.1771 3.43257 34.1208 3.08859 31.4592C3.03871 31.0735 3.2241 30.6954 3.57126 30.5203C3.9871 30.3105 4.5914 29.9568 5.16999 29.4405C5.81432 28.8657 6.19232 28.2594 6.40582 27.8144C6.58968 27.4311 7.0123 27.2143 7.42421 27.3194C10.6044 28.1306 12.7695 29.7851 13.555 30.4606C13.7659 30.6419 13.8874 30.9093 13.8657 31.1867C13.6469 33.9791 11.3116 36.1771 8.46294 36.1771Z" fill="#F0C087"/>
<path d="M13.5549 30.4606C12.7694 29.7851 10.6043 28.1306 7.42407 27.3194C7.01217 27.2143 6.58954 27.4311 6.40568 27.8144C6.24403 28.1514 5.97682 28.5809 5.58034 29.0192L5.57979 29.0223C5.45675 29.1617 5.32571 29.3015 5.16996 29.4406C4.59137 29.957 3.98707 30.3106 3.57123 30.5204C3.22407 30.6955 3.03879 31.0737 3.08856 31.4594C3.39754 33.8498 5.26807 35.7525 7.64129 36.1154C6.5599 35.3797 5.75326 34.368 5.75326 32.5644V31.2764C5.95845 31.1249 6.16506 30.9739 6.37265 30.7886C6.87203 30.3432 7.3068 29.8303 7.66437 29.2647C10.0972 30.0238 11.7466 31.2883 12.3719 31.826C12.543 31.9761 12.9679 32.3676 13.4649 32.8339C13.6787 32.3193 13.8201 31.7672 13.8655 31.1869C13.8873 30.9094 13.7657 30.642 13.5549 30.4606Z" fill="#E6AF78"/>
<path d="M0.88409 40.9531C0.536168 41.4149 0.333496 41.9814 0.333496 42.5813V47.919C0.333496 48.1585 0.428656 48.3883 0.598043 48.5577C0.767429 48.7271 0.997166 48.8222 1.23671 48.8222H3.94637V44.2711C3.94637 43.7224 3.69689 43.2033 3.26836 42.8605L0.88409 40.9531Z" fill="#C7CFE2"/>
<path d="M41.3104 38.9254L33.7531 36.1772L28.3338 37.9838L22.9145 36.1774L15.3573 38.9255C14.6603 39.1789 14.0582 39.6407 13.6327 40.2482C13.2072 40.8556 12.979 41.5792 12.979 42.3208V47.9193C12.979 48.1589 13.0742 48.3886 13.2436 48.558C13.4129 48.7274 13.6427 48.8225 13.8822 48.8225H42.7854C43.025 48.8225 43.2547 48.7274 43.4241 48.558C43.5935 48.3886 43.6887 48.1589 43.6887 47.9193V42.3208C43.6887 41.5792 43.4605 40.8555 43.035 40.2481C42.6095 39.6406 42.0074 39.1788 41.3104 38.9254Z" fill="#FF507D"/>
<path d="M27.3871 39.79L26.5269 48.8221H30.1397L29.2795 39.79H27.3871Z" fill="#707487"/>
<path d="M29.2813 41.0313H27.3847C27.3017 41.0313 27.2195 41.015 27.1428 40.9832C27.066 40.9514 26.9963 40.9048 26.9376 40.8461C26.8789 40.7874 26.8323 40.7177 26.8005 40.641C26.7688 40.5643 26.7524 40.482 26.7524 40.399V37.9839H29.9135V40.399C29.9135 40.482 29.8972 40.5642 29.8654 40.641C29.8336 40.7177 29.7871 40.7874 29.7284 40.8461C29.6697 40.9048 29.6 40.9514 29.5233 40.9832C29.4465 41.0149 29.3643 41.0313 29.2813 41.0313Z" fill="#5B5D6E"/>
<path d="M42.7161 39.8589C43.326 40.5135 43.6884 41.3853 43.6884 42.3205V47.9189C43.6884 48.1585 43.5932 48.3882 43.4238 48.5576C43.2544 48.727 43.0247 48.8222 42.7851 48.8222H38.269V45.8025C38.269 44.8443 38.6497 43.9253 39.3272 43.2479L42.7161 39.8589Z" fill="#D23C69"/>
<path d="M38.269 17.5502V9.98368C38.269 8.98596 37.4602 8.17725 36.4625 8.17725H25.6238C21.6332 8.17725 18.3979 11.4123 18.3979 15.4031V17.5502C18.3979 18.521 18.5545 19.4855 18.8615 20.4065L19.1622 21.3085C19.2542 21.5848 19.3012 21.8741 19.3012 22.1653V22.6289H37.3657V22.1653C37.3657 21.8741 37.4126 21.5848 37.5047 21.3085L37.8053 20.4065C38.1124 19.4855 38.269 18.5211 38.269 17.5502Z" fill="#5A4146"/>
<path d="M22.9146 11.8466C22.9146 13.8731 24.5574 15.5159 26.5839 15.5159H27.0919L27.3371 22.6287H37.366V22.1652C37.366 21.8739 37.413 21.5847 37.5051 21.3084L37.8057 20.4064C38.1128 19.4854 38.2693 18.5209 38.2693 17.5501V9.98368C38.2693 8.98596 37.4604 8.17725 36.4628 8.17725H26.5839C24.5574 8.17725 22.9146 9.82006 22.9146 11.8466Z" fill="#694B4B"/>
<path d="M22.9136 29.855H33.7526V37.9837H22.9136V29.855Z" fill="#E6AF78"/>
<path d="M22.9147 32.9087C24.5102 33.833 26.3575 34.3706 28.334 34.3706C30.3105 34.3706 32.1578 33.833 33.7533 32.9087V29.8545H22.9146L22.9147 32.9087Z" fill="#D29B6E"/>
<path d="M28.3337 37.9837L25.4529 40.8644C25.0658 41.2516 24.4258 41.2079 24.0948 40.7718L21.1079 36.836L21.8892 35.1896C22.1197 34.7037 22.7211 34.5257 23.1789 34.8079L28.3337 37.9837ZM28.3337 37.9837L31.2144 40.8644C31.6016 41.2516 32.2415 41.2079 32.5725 40.7718L35.5594 36.836L34.7781 35.1896C34.5476 34.7037 33.9462 34.5257 33.4884 34.8079L28.3337 37.9837Z" fill="#D23C69"/>
<path d="M28.3336 32.5643C23.3452 32.5643 19.3013 28.5204 19.3013 23.532V22.4738C19.3013 21.9947 19.4916 21.5352 19.8303 21.1964L20.5786 20.4482C20.7463 20.2804 20.8793 20.0813 20.9701 19.8621C21.0609 19.6429 21.1076 19.408 21.1076 19.1708V17.0056C21.1076 16.5873 21.3885 16.224 21.7955 16.1278C23.9317 15.6233 30.5791 14.4282 35.103 17.7553C35.3968 17.9714 35.5592 18.3263 35.5592 18.6909V19.1708C35.5592 19.6498 35.7495 20.1093 36.0883 20.4482L36.8365 21.1964C37.0042 21.3641 37.1373 21.5633 37.2281 21.7825C37.3188 22.0016 37.3655 22.2366 37.3655 22.4738V23.532C37.3659 28.5204 33.3219 32.5643 28.3336 32.5643Z" fill="#F0C087"/>
<path d="M35.1031 17.7558C31.9214 15.4157 27.695 15.3144 24.7207 15.6348C23.4661 15.7699 22.4294 15.9787 21.7957 16.1283C21.3887 16.2244 21.1078 16.5878 21.1078 17.006V19.1711C21.1078 19.6503 20.9175 20.1098 20.5787 20.4486L19.8304 21.1968C19.6627 21.3646 19.5296 21.5638 19.4388 21.783C19.348 22.0021 19.3013 22.2371 19.3013 22.4743V23.5324C19.3013 28.1507 22.7695 31.9527 27.2421 32.4924C25.6836 30.8694 24.7206 28.67 24.7206 26.2421V19.6401C24.7206 18.7247 25.4012 17.9598 26.3094 17.8459C28.477 17.5741 32.447 17.4107 35.5592 19.1713V18.6914C35.5594 18.3267 35.3967 17.9717 35.1031 17.7558Z" fill="#E6AF78"/>
<path d="M13.9512 39.8589C13.3414 40.5135 12.979 41.3853 12.979 42.3205V47.9189C12.979 48.1585 13.0742 48.3882 13.2436 48.5576C13.4129 48.727 13.6427 48.8222 13.8822 48.8222H18.3983V45.8025C18.3983 44.8443 18.0177 43.9253 17.3401 43.2479L13.9512 39.8589Z" fill="#D23C69"/>
</g>
<defs>
<clipPath id="clip0_366_4951">
<rect width="56" height="56" fill="white" transform="translate(0.333496 0.5)"/>
</clipPath>
</defs>
</svg>
