<svg width="64" height="65" viewBox="0 0 64 65" fill="none" xmlns="http://www.w3.org/2000/svg">
<path d="M64 32.6167C64 50.2898 49.6731 64.6167 32 64.6167C14.3269 64.6167 0 50.2898 0 32.6167C0 14.9436 14.3269 0.616699 32 0.616699C49.6731 0.616699 64 14.9436 64 32.6167ZM5.12 32.6167C5.12 47.4621 17.1546 59.4967 32 59.4967C46.8454 59.4967 58.88 47.4621 58.88 32.6167C58.88 17.7713 46.8454 5.7367 32 5.7367C17.1546 5.7367 5.12 17.7713 5.12 32.6167Z" fill="#2291C5" fill-opacity="0.1"/>
<path d="M32 3.19161C32 1.76929 33.1549 0.605444 34.5726 0.720465C38.9001 1.07158 43.1209 2.30586 46.9738 4.35805C51.5869 6.81523 55.5325 10.3704 58.4666 14.7135C61.4006 19.0567 63.2339 24.0559 63.8067 29.2754C64.3796 34.4948 63.6744 39.776 61.7528 44.6584C59.8313 49.5408 56.7516 53.8762 52.7823 57.2866C48.8131 60.697 44.0748 63.0787 38.9806 64.2242C33.8864 65.3697 28.591 65.2442 23.5561 63.8586C19.3417 62.6987 15.4169 60.6855 12.0181 57.952C10.9175 57.0669 10.8727 55.4409 11.8365 54.4084C12.8084 53.3672 14.4352 53.3269 15.5595 54.2013C18.3341 56.3591 21.5085 57.9551 24.9071 58.8905C29.1364 60.0544 33.5846 60.1598 37.8637 59.1976C42.1428 58.2354 46.123 56.2347 49.4572 53.37C52.7913 50.5053 55.3783 46.8636 56.9924 42.7623C58.6065 38.6611 59.1988 34.2249 58.7177 29.8406C58.2365 25.4562 56.6965 21.2569 54.2319 17.6086C51.7673 13.9604 48.453 10.9741 44.578 8.91002C41.4635 7.25113 38.0628 6.22849 34.5714 5.89094C33.1557 5.75408 32 4.61392 32 3.19161Z" fill="url(#paint0_radial_360_3370)"/>
<path d="M24.7107 28.7962L21.2973 37.1162H18.4387L21.8804 29.1233H17.8271V26.734H24.7107V28.7962ZM25.556 34.8833C26.4757 34.1627 27.2295 33.5417 27.8173 33.0202C28.4052 32.4987 28.8982 31.963 29.2964 31.4131C29.6947 30.8537 29.8938 30.3227 29.8938 29.8202C29.8938 29.5168 29.8227 29.2798 29.6804 29.1091C29.5477 28.9384 29.3486 28.8531 29.0831 28.8531C28.8081 28.8531 28.5948 28.9716 28.4431 29.2087C28.2914 29.4362 28.2203 29.7728 28.2298 30.2184H25.5276C25.556 29.3746 25.7409 28.6777 26.0822 28.1278C26.4236 27.5684 26.8692 27.1607 27.4191 26.9047C27.969 26.6392 28.5806 26.5064 29.2538 26.5064C30.42 26.5064 31.2876 26.7956 31.8564 27.374C32.4253 27.9524 32.7098 28.7014 32.7098 29.6211C32.7098 30.6072 32.3779 31.5316 31.7142 32.3944C31.06 33.2572 30.2399 34.03 29.2538 34.7127H32.8093V36.974H25.556V34.8833ZM33.6959 29.3935C33.6959 28.5876 33.9234 27.9713 34.3786 27.5447C34.8337 27.118 35.431 26.9047 36.1706 26.9047C36.9006 26.9047 37.4932 27.118 37.9483 27.5447C38.4034 27.9713 38.631 28.5876 38.631 29.3935C38.631 30.19 38.4034 30.8063 37.9483 31.2424C37.4932 31.6691 36.9006 31.8824 36.1706 31.8824C35.4405 31.8824 34.8431 31.6691 34.3786 31.2424C33.9234 30.8063 33.6959 30.19 33.6959 29.3935ZM43.7937 27.0611L38.4034 37.1162H35.7297L41.1199 27.0611H43.7937ZM36.1563 28.5402C35.7676 28.5402 35.5732 28.8247 35.5732 29.3935C35.5732 29.9624 35.7676 30.2469 36.1563 30.2469C36.346 30.2469 36.4929 30.1758 36.5972 30.0335C36.711 29.8913 36.7679 29.678 36.7679 29.3935C36.7679 29.1091 36.711 28.8958 36.5972 28.7535C36.4929 28.6113 36.346 28.5402 36.1563 28.5402ZM40.8923 34.7695C40.8923 33.9731 41.1199 33.3615 41.575 32.9349C42.0396 32.4987 42.6369 32.2807 43.367 32.2807C44.0971 32.2807 44.6849 32.4987 45.1306 32.9349C45.5857 33.3615 45.8132 33.9731 45.8132 34.7695C45.8132 35.5755 45.5857 36.1965 45.1306 36.6327C44.6849 37.0593 44.0971 37.2727 43.367 37.2727C42.6369 37.2727 42.0396 37.0593 41.575 36.6327C41.1199 36.1965 40.8923 35.5755 40.8923 34.7695ZM43.3528 33.9162C42.9546 33.9162 42.7554 34.2007 42.7554 34.7695C42.7554 35.3479 42.9546 35.6371 43.3528 35.6371C43.5329 35.6371 43.6752 35.566 43.7794 35.4238C43.8932 35.2721 43.9501 35.054 43.9501 34.7695C43.9501 34.4946 43.8932 34.286 43.7794 34.1438C43.6752 33.9921 43.5329 33.9162 43.3528 33.9162Z" fill="#2291C5"/>
<defs>
<radialGradient id="paint0_radial_360_3370" cx="0" cy="0" r="1" gradientUnits="userSpaceOnUse" gradientTransform="translate(8.8 -26.7466) rotate(42.9394) scale(87.4228 87.4618)">
<stop stop-color="white"/>
<stop offset="1" stop-color="#2291C5"/>
</radialGradient>
</defs>
</svg>
