<svg width="41" height="40" viewBox="0 0 41 40" fill="none" xmlns="http://www.w3.org/2000/svg">
<g clip-path="url(#clip0_356_1697)">
<path fill-rule="evenodd" clip-rule="evenodd" d="M22.8565 35.7721C32.4097 35.7721 40.2007 27.9811 40.2007 18.4302C40.2007 8.87695 32.4097 1.08594 22.8565 1.08594C13.3056 1.08594 5.51465 8.87695 5.51465 18.4302C5.51465 27.9811 13.3057 35.7721 22.8565 35.7721Z" fill="#24D1F8"/>
<path fill-rule="evenodd" clip-rule="evenodd" d="M29.9214 34.2717C35.9775 31.567 40.1986 25.4903 40.1986 18.4302C40.1986 8.85195 32.4349 1.08594 22.8567 1.08594C19.2025 1.08594 15.8125 2.2175 13.0166 4.14812C15.175 3.18508 17.5632 2.64773 20.0813 2.64773C29.6572 2.64773 37.4232 10.4137 37.4232 19.992C37.4232 25.9138 34.4521 31.1435 29.9214 34.2717Z" fill="#20BDE0"/>
<path fill-rule="evenodd" clip-rule="evenodd" d="M5.98816 14.3943C7.82551 14.4512 9.43059 14.6675 9.8791 15.2071C11.0881 16.655 9.6241 19.7764 13.0279 20.2114C19.4073 21.0287 20.3589 29.8124 16.1333 34.4205C9.89504 31.7954 5.51465 25.6232 5.51465 18.431C5.51457 17.0399 5.67848 15.6897 5.98816 14.3943ZM31.3601 33.5462L25.7798 28.2027L25.8276 22.3583C25.8276 22.3583 18.0184 16.1292 22.4739 14.5491C26.9295 12.969 29.1334 19.0525 33.828 19.0525C36.0479 19.0525 38.3632 19.0206 40.1892 18.9864C39.9935 25.2407 36.485 30.657 31.3601 33.5462Z" fill="#23F1A8"/>
<path fill-rule="evenodd" clip-rule="evenodd" d="M31.3592 33.5461L31.1475 33.3434C34.9792 30.1605 37.4221 25.3612 37.4221 19.9927C37.4221 19.6694 37.413 19.3484 37.3948 19.0296C38.392 19.0182 39.3437 19.0023 40.1884 18.9863C40.1019 21.723 39.3825 24.298 38.1712 26.5724C38.1302 26.6498 38.087 26.7273 38.0437 26.8047L38.0346 26.8229C37.9936 26.8958 37.9526 26.9709 37.9093 27.0437L37.8957 27.0688C37.8546 27.1417 37.8114 27.2145 37.7682 27.2874L37.759 27.3034C37.482 27.7658 37.1842 28.2156 36.8665 28.6512L36.8506 28.6739C36.8028 28.7377 36.7572 28.7991 36.7094 28.8629L36.6798 28.9039C36.6342 28.9636 36.5879 29.0228 36.5409 29.0815L36.5045 29.1293C36.4594 29.188 36.4131 29.2457 36.3656 29.3023L36.3292 29.3479C36.2814 29.4071 36.2336 29.464 36.1857 29.5232L36.1584 29.5573C35.8821 29.8868 35.5935 30.2058 35.2932 30.5136C35.2796 30.5273 35.2659 30.5432 35.2522 30.5569C35.2044 30.607 35.1543 30.6548 35.1065 30.7048C35.0861 30.723 35.0679 30.7435 35.0473 30.7618C35.0018 30.8096 34.9517 30.8552 34.9039 30.903C34.8834 30.9212 34.8652 30.9416 34.8446 30.9599C34.7968 31.0055 34.749 31.051 34.6989 31.0966C34.6783 31.1169 34.657 31.1367 34.6352 31.1558C34.5874 31.2013 34.5396 31.2469 34.4895 31.2901C34.469 31.3083 34.4485 31.3265 34.428 31.347C34.3757 31.3926 34.3256 31.4381 34.2754 31.4813C34.2595 31.495 34.2458 31.5064 34.2321 31.52C34.0409 31.6839 33.8474 31.8478 33.6493 32.0049L33.6357 32.0141C33.5833 32.0573 33.5286 32.0983 33.474 32.1416C33.4513 32.1575 33.4285 32.1757 33.4057 32.1939C33.3579 32.2326 33.3079 32.2691 33.2578 32.3055C33.2304 32.3259 33.2032 32.3487 33.1736 32.3692C33.1257 32.4034 33.0779 32.4398 33.0301 32.474C33.0005 32.4967 32.9709 32.5173 32.9413 32.5377C32.8935 32.5741 32.8457 32.6083 32.7956 32.6425C32.766 32.663 32.7364 32.6835 32.7045 32.704C32.6565 32.7381 32.6079 32.7715 32.5588 32.8041C32.5292 32.8246 32.4973 32.8452 32.4677 32.8656C32.4176 32.8998 32.3675 32.9316 32.3175 32.9658C32.2901 32.984 32.2605 33.0022 32.2332 33.0204C32.1786 33.0545 32.1262 33.0887 32.0716 33.1228L32.0375 33.1433C31.9014 33.2289 31.764 33.3124 31.6253 33.3937C31.6167 33.3999 31.6076 33.4052 31.598 33.4097C31.5434 33.4416 31.491 33.4712 31.4386 33.503C31.4115 33.5165 31.3864 33.5324 31.3592 33.5461Z" fill="#1FDA98"/>
<path fill-rule="evenodd" clip-rule="evenodd" d="M16.6514 2.22891C17.0976 3.8818 17.6577 5.44367 18.2337 5.71C19.5269 6.30875 21.5145 4.63086 22.4957 7.02594C24.5243 11.971 32.3062 10.2338 34.0957 5.22273C31.0677 2.6432 27.1449 1.08594 22.8555 1.08594C20.6698 1.08602 18.5797 1.49125 16.6514 2.22891Z" fill="#23F1A8"/>
<path fill-rule="evenodd" clip-rule="evenodd" d="M16.6514 2.22883C16.7163 2.46958 16.7847 2.70942 16.8563 2.94828C17.899 2.75023 18.9782 2.64773 20.0801 2.64773C24.9022 2.64773 29.2645 4.61711 32.4086 7.79547C33.1463 7.08516 33.7405 6.22 34.0957 5.22273C34.0638 5.19539 34.0319 5.16813 34 5.14305C33.9373 5.0887 33.8736 5.03557 33.8088 4.98367C33.7564 4.94039 33.704 4.89945 33.6517 4.85617C33.5832 4.80159 33.5141 4.74771 33.4445 4.69453C33.4081 4.66719 33.3716 4.63758 33.3352 4.61031C33.2646 4.55797 33.194 4.50328 33.1235 4.45094C33.0848 4.42359 33.0461 4.39633 33.0074 4.36672C32.9368 4.31664 32.8685 4.26656 32.7979 4.21875C32.7479 4.18234 32.6978 4.1482 32.6477 4.11398C32.5885 4.07531 32.5316 4.0343 32.4724 3.99563C32.4086 3.95461 32.3471 3.91367 32.2834 3.87266C32.2288 3.83625 32.1741 3.80211 32.1195 3.76563C32.0603 3.72922 31.9988 3.69047 31.9396 3.65406C31.8782 3.61539 31.8167 3.57891 31.7529 3.54023C31.696 3.50609 31.6368 3.47195 31.5799 3.43781C31.5207 3.40367 31.4615 3.36953 31.4 3.33539C31.3271 3.29438 31.2543 3.25117 31.1792 3.21242C31.1359 3.18734 31.0927 3.16461 31.0471 3.13953C30.9712 3.09796 30.8946 3.05772 30.8172 3.01883C30.7762 2.99609 30.733 2.97555 30.692 2.95508C30.61 2.9118 30.5281 2.87312 30.4461 2.83211C30.4029 2.81164 30.3619 2.79109 30.3186 2.77063C30.2316 2.7292 30.1443 2.68821 30.0568 2.64766C30.0136 2.62945 29.9726 2.60898 29.9293 2.5907C29.8349 2.54801 29.74 2.50626 29.6447 2.46547L29.5491 2.42445L29.2622 2.30836C29.2304 2.29695 29.1985 2.28328 29.1689 2.27195C29.0687 2.23328 28.9662 2.19453 28.8661 2.15586C28.841 2.14672 28.8137 2.13766 28.7886 2.12852C28.6771 2.0875 28.5655 2.04883 28.4539 2.01016L28.3902 1.98742C28.2718 1.94875 28.1534 1.91 28.035 1.87359C28.0146 1.8668 27.9964 1.85992 27.9758 1.85539C27.862 1.81886 27.7474 1.78471 27.6321 1.75297L27.5729 1.73477C27.4545 1.70289 27.3383 1.67102 27.22 1.63914L27.1676 1.62773C27.0424 1.59359 26.9149 1.56398 26.7874 1.53438L26.7646 1.52984C26.6293 1.49784 26.4935 1.46822 26.3571 1.44102L26.3389 1.43648C26.2069 1.40914 26.0725 1.38414 25.9405 1.35906L25.9086 1.35453C25.7766 1.3318 25.6446 1.30898 25.5102 1.28852L25.4851 1.28398C25.3462 1.26352 25.2074 1.24297 25.0662 1.22703L25.0639 1.22477C24.7749 1.18794 24.4849 1.1591 24.1943 1.13828L24.1851 1.13602L23.7548 1.10867H23.7411C23.5954 1.10188 23.4497 1.095 23.304 1.09273C23.1546 1.0882 23.005 1.08594 22.8555 1.08594C22.2294 1.08594 21.6101 1.12008 21.0022 1.18383L20.9886 1.18609C20.9362 1.19062 20.8838 1.1975 20.8314 1.2043H20.8269C20.7791 1.20883 20.729 1.2157 20.6789 1.2225L20.6562 1.22477C20.6084 1.23156 20.5629 1.23617 20.515 1.24297L20.4764 1.2475C20.4354 1.2543 20.3921 1.26117 20.3489 1.2657L20.2988 1.27484C20.2692 1.27711 20.2396 1.28164 20.21 1.28625C20.1895 1.29078 20.1689 1.29305 20.1485 1.29766C20.1121 1.30219 20.0733 1.30906 20.0369 1.31359L19.964 1.32727L19.9094 1.33641C19.8639 1.3432 19.8161 1.35234 19.7705 1.36148L19.7432 1.36602C18.6881 1.55741 17.6531 1.84625 16.6514 2.22883Z" fill="#1FDA98"/>
<path fill-rule="evenodd" clip-rule="evenodd" d="M1.72949 21.4788H19.9183V32.1316H1.72949V21.4788Z" fill="#FFC06C"/>
<path fill-rule="evenodd" clip-rule="evenodd" d="M12.0186 21.4788H19.9189V32.1316H12.0186V21.4788Z" fill="#EDA558"/>
<path fill-rule="evenodd" clip-rule="evenodd" d="M18.4775 21.4788H19.9187V32.1316H18.4775V21.4788Z" fill="#E1994C"/>
<path fill-rule="evenodd" clip-rule="evenodd" d="M14.6318 21.4788H17.3024V26.9794L15.9682 25.6452L14.6318 26.9794V21.4788Z" fill="#FF4C4C"/>
<path fill-rule="evenodd" clip-rule="evenodd" d="M15.9697 21.4788H17.3039V26.9794L15.9697 25.6452V21.4788Z" fill="#D11E1E"/>
<path fill-rule="evenodd" clip-rule="evenodd" d="M1.24746 32.1309H30.5491C31.1251 32.1309 31.5964 32.6021 31.5964 33.1781V35.7645C31.5964 36.3405 31.1251 36.8118 30.5491 36.8118H1.24746C0.671445 36.8119 0.200195 36.3405 0.200195 35.7645V33.1782C0.200195 32.6022 0.671445 32.1309 1.24746 32.1309Z" fill="#CD353E"/>
<path fill-rule="evenodd" clip-rule="evenodd" d="M21.0229 6.27189C23.1015 4.19322 26.5029 4.19322 28.5816 6.27189C30.6603 8.35057 30.6603 11.752 28.5816 13.8306L24.8022 17.61L21.0229 13.8306C18.9442 11.752 18.9442 8.35057 21.0229 6.27189Z" fill="#FF4C4C"/>
<path fill-rule="evenodd" clip-rule="evenodd" d="M22.5192 7.76826C23.7805 6.50693 25.825 6.50693 27.0863 7.76826C28.3476 9.02959 28.3476 11.0741 27.0863 12.3354C25.825 13.5967 23.7804 13.5967 22.5192 12.3354C21.2579 11.0741 21.2579 9.02959 22.5192 7.76826Z" fill="white"/>
<path fill-rule="evenodd" clip-rule="evenodd" d="M27.6772 6.27254C29.7559 8.35121 29.7559 11.7526 27.6772 13.8313L26.5457 14.9629L24.3486 17.1599L24.8017 17.6107L27.2902 15.1222L28.5811 13.8313C30.6598 11.7526 30.6598 8.35121 28.5811 6.27254C28.2384 5.92884 27.85 5.63389 27.4268 5.39598C26.4797 4.86551 25.4029 4.64465 24.3487 4.73114C25.4597 4.8245 26.5457 5.26161 27.4314 6.04028C27.5155 6.11538 27.5975 6.19283 27.6772 6.27254Z" fill="#D11E1E"/>
<path fill-rule="evenodd" clip-rule="evenodd" d="M24.4912 6.83711C25.4179 6.74828 26.3764 7.05797 27.0867 7.76828C28.348 9.02961 28.348 11.0741 27.0867 12.3354C26.3764 13.0457 25.4179 13.3554 24.4912 13.2666C25.2107 13.1983 25.9119 12.8863 26.4629 12.3354C27.7242 11.0741 27.7242 9.02953 26.4629 7.76828C25.9118 7.21735 25.2107 6.90774 24.4912 6.83711Z" fill="#E6E6E6"/>
<path fill-rule="evenodd" clip-rule="evenodd" d="M21.6826 36.8116H33.08V26.4252L29.3029 21.3571C28.9522 20.8835 28.4445 20.6309 27.8571 20.6309H22.9554C22.2541 20.6309 21.6826 21.2023 21.6826 21.9035V36.8116Z" fill="#FF4C4C"/>
<path fill-rule="evenodd" clip-rule="evenodd" d="M23.6318 22.4395V26.426H30.8195L27.8871 22.4895C27.8529 22.444 27.8415 22.4395 27.7869 22.4395H23.6318Z" fill="#F0F0FC"/>
<path fill-rule="evenodd" clip-rule="evenodd" d="M26.7842 22.4395L29.753 26.426H30.8208L27.8884 22.4895C27.8543 22.444 27.8429 22.4395 27.7882 22.4395H26.7842Z" fill="#D7D7E3"/>
<path fill-rule="evenodd" clip-rule="evenodd" d="M31.8547 36.8116H33.0818V26.4252L29.3047 21.3571C28.9541 20.8835 28.4464 20.6309 27.859 20.6309H26.6318C27.2215 20.6309 27.7269 20.8836 28.0798 21.3571L31.8547 26.4252V36.8116Z" fill="#D11E1E"/>
<path fill-rule="evenodd" clip-rule="evenodd" d="M27.3818 38.9139C29.3716 38.9139 30.995 37.2906 30.995 35.3007C30.995 33.3086 29.3717 31.6875 27.3818 31.6875C25.3896 31.6875 23.7686 33.3085 23.7686 35.3007C23.7686 37.2906 25.3896 38.9139 27.3818 38.9139Z" fill="#363D52"/>
<path fill-rule="evenodd" clip-rule="evenodd" d="M27.3821 36.9218C28.2746 36.9218 29.0031 36.1932 29.0031 35.3008C29.0031 34.406 28.2745 33.6775 27.3821 33.6775C26.4873 33.6775 25.7588 34.4061 25.7588 35.3008C25.7588 36.1932 26.4873 36.9218 27.3821 36.9218Z" fill="#E1EFFF"/>
<path fill-rule="evenodd" clip-rule="evenodd" d="M27.3829 31.6877C29.3773 31.6877 30.9961 33.3042 30.9961 35.3009C30.9961 37.2954 29.3773 38.9142 27.3829 38.9142C27.2554 38.9142 27.1301 38.9074 27.0049 38.8937C28.824 38.7047 30.2424 37.1679 30.2424 35.301C30.2424 33.4318 28.8239 31.895 27.0049 31.706C27.1301 31.6923 27.2554 31.6877 27.3829 31.6877Z" fill="#2A3146"/>
<path fill-rule="evenodd" clip-rule="evenodd" d="M27.3819 33.6775C28.2767 33.6775 29.0029 34.4037 29.0029 35.3008C29.0029 36.1955 28.2767 36.9218 27.3819 36.9218C27.284 36.9218 27.1861 36.9126 27.0928 36.8967C27.8532 36.7601 28.4293 36.0976 28.4293 35.3007C28.4293 34.5016 27.8532 33.8391 27.0928 33.7024C27.1883 33.6861 27.285 33.6778 27.3819 33.6775Z" fill="#D7D7E3"/>
<path fill-rule="evenodd" clip-rule="evenodd" d="M8.44035 38.9041C10.4302 38.9041 12.0536 37.2809 12.0536 35.2909C12.0536 33.301 10.4303 31.6777 8.44035 31.6777C6.45043 31.6777 4.82715 33.301 4.82715 35.2909C4.82715 37.2809 6.45043 38.9041 8.44035 38.9041Z" fill="#363D52"/>
<path fill-rule="evenodd" clip-rule="evenodd" d="M8.43871 36.9123C9.33121 36.9123 10.0597 36.1837 10.0597 35.2913C10.0597 34.3965 9.33113 33.668 8.43871 33.668C7.54395 33.668 6.81543 34.3966 6.81543 35.2913C6.81535 36.1838 7.54395 36.9123 8.43871 36.9123Z" fill="#E1EFFF"/>
<path fill-rule="evenodd" clip-rule="evenodd" d="M8.43949 31.6777C10.4339 31.6777 12.0527 33.2942 12.0527 35.2909C12.0527 37.2854 10.4339 38.9041 8.43949 38.9041C8.31199 38.9041 8.18676 38.8973 8.06152 38.8837C9.88066 38.697 11.299 37.1602 11.299 35.291C11.299 33.4219 9.88059 31.885 8.06152 31.696C8.18717 31.6842 8.31329 31.6781 8.43949 31.6777Z" fill="#2A3146"/>
<path fill-rule="evenodd" clip-rule="evenodd" d="M8.4402 33.668C9.33496 33.668 10.0612 34.3942 10.0612 35.2913C10.0612 36.186 9.33496 36.9123 8.4402 36.9123C8.34231 36.9123 8.24441 36.9055 8.15332 36.8872C8.91145 36.7529 9.48746 36.088 9.48746 35.2912C9.48746 34.492 8.91145 33.8295 8.15332 33.6929C8.24808 33.6766 8.34404 33.6682 8.4402 33.668Z" fill="#D7D7E3"/>
</g>
<defs>
<clipPath id="clip0_356_1697">
<rect width="40" height="40" fill="white" transform="translate(0.200195)"/>
</clipPath>
</defs>
</svg>
