<svg width="21" height="21" viewBox="0 0 21 21" fill="none" xmlns="http://www.w3.org/2000/svg">
<path d="M14.8327 12.1667C15.0537 12.1667 15.2657 12.0789 15.4219 11.9226C15.5782 11.7663 15.666 11.5543 15.666 11.3333C15.666 11.1123 15.5782 10.9004 15.4219 10.7441C15.2657 10.5878 15.0537 10.5 14.8327 10.5C14.6117 10.5 14.3997 10.5878 14.2434 10.7441C14.0871 10.9004 13.9993 11.1123 13.9993 11.3333C13.9993 11.5543 14.0871 11.7663 14.2434 11.9226C14.3997 12.0789 14.6117 12.1667 14.8327 12.1667ZM14.8327 15.5C15.0537 15.5 15.2657 15.4122 15.4219 15.2559C15.5782 15.0996 15.666 14.8877 15.666 14.6667C15.666 14.4457 15.5782 14.2337 15.4219 14.0774C15.2657 13.9211 15.0537 13.8333 14.8327 13.8333C14.6117 13.8333 14.3997 13.9211 14.2434 14.0774C14.0871 14.2337 13.9993 14.4457 13.9993 14.6667C13.9993 14.8877 14.0871 15.0996 14.2434 15.2559C14.3997 15.4122 14.6117 15.5 14.8327 15.5ZM11.4993 11.3333C11.4993 11.5543 11.4116 11.7663 11.2553 11.9226C11.099 12.0789 10.887 12.1667 10.666 12.1667C10.445 12.1667 10.233 12.0789 10.0768 11.9226C9.92048 11.7663 9.83268 11.5543 9.83268 11.3333C9.83268 11.1123 9.92048 10.9004 10.0768 10.7441C10.233 10.5878 10.445 10.5 10.666 10.5C10.887 10.5 11.099 10.5878 11.2553 10.7441C11.4116 10.9004 11.4993 11.1123 11.4993 11.3333ZM11.4993 14.6667C11.4993 14.8877 11.4116 15.0996 11.2553 15.2559C11.099 15.4122 10.887 15.5 10.666 15.5C10.445 15.5 10.233 15.4122 10.0768 15.2559C9.92048 15.0996 9.83268 14.8877 9.83268 14.6667C9.83268 14.4457 9.92048 14.2337 10.0768 14.0774C10.233 13.9211 10.445 13.8333 10.666 13.8333C10.887 13.8333 11.099 13.9211 11.2553 14.0774C11.4116 14.2337 11.4993 14.4457 11.4993 14.6667ZM6.49935 12.1667C6.72036 12.1667 6.93232 12.0789 7.0886 11.9226C7.24488 11.7663 7.33268 11.5543 7.33268 11.3333C7.33268 11.1123 7.24488 10.9004 7.0886 10.7441C6.93232 10.5878 6.72036 10.5 6.49935 10.5C6.27834 10.5 6.06637 10.5878 5.91009 10.7441C5.75381 10.9004 5.66602 11.1123 5.66602 11.3333C5.66602 11.5543 5.75381 11.7663 5.91009 11.9226C6.06637 12.0789 6.27834 12.1667 6.49935 12.1667ZM6.49935 15.5C6.72036 15.5 6.93232 15.4122 7.0886 15.2559C7.24488 15.0996 7.33268 14.8877 7.33268 14.6667C7.33268 14.4457 7.24488 14.2337 7.0886 14.0774C6.93232 13.9211 6.72036 13.8333 6.49935 13.8333C6.27834 13.8333 6.06637 13.9211 5.91009 14.0774C5.75381 14.2337 5.66602 14.4457 5.66602 14.6667C5.66602 14.8877 5.75381 15.0996 5.91009 15.2559C6.06637 15.4122 6.27834 15.5 6.49935 15.5Z" fill="#EA7D00"/>
<path fill-rule="evenodd" clip-rule="evenodd" d="M6.49982 1.95703C6.66558 1.95703 6.82455 2.02288 6.94176 2.14009C7.05897 2.2573 7.12482 2.41627 7.12482 2.58203V3.21786C7.67648 3.20703 8.28398 3.20703 8.95232 3.20703H12.3798C13.049 3.20703 13.6565 3.20703 14.2082 3.21786V2.58203C14.2082 2.41627 14.274 2.2573 14.3912 2.14009C14.5084 2.02288 14.6674 1.95703 14.8332 1.95703C14.9989 1.95703 15.1579 2.02288 15.2751 2.14009C15.3923 2.2573 15.4582 2.41627 15.4582 2.58203V3.2712C15.6748 3.28786 15.8801 3.30898 16.074 3.33453C17.0507 3.4662 17.8415 3.74286 18.4657 4.3662C19.089 4.99036 19.3657 5.7812 19.4973 6.75786C19.6248 7.70786 19.6248 8.92036 19.6248 10.452V12.212C19.6248 13.7437 19.6248 14.957 19.4973 15.9062C19.3657 16.8829 19.089 17.6737 18.4657 18.2979C17.8415 18.9212 17.0507 19.1979 16.074 19.3295C15.124 19.457 13.9115 19.457 12.3798 19.457H8.95398C7.42232 19.457 6.20898 19.457 5.25982 19.3295C4.28315 19.1979 3.49232 18.9212 2.86815 18.2979C2.24482 17.6737 1.96815 16.8829 1.83648 15.9062C1.70898 14.9562 1.70898 13.7437 1.70898 12.212V10.452C1.70898 8.92036 1.70898 7.70703 1.83648 6.75786C1.96815 5.7812 2.24482 4.99036 2.86815 4.3662C3.49232 3.74286 4.28315 3.4662 5.25982 3.33453C5.45426 3.30898 5.65954 3.28786 5.87565 3.2712V2.58203C5.87565 2.41642 5.94138 2.25757 6.05841 2.14038C6.17545 2.0232 6.3342 1.95725 6.49982 1.95703ZM5.42482 4.5737C4.58732 4.6862 4.10398 4.89786 3.75148 5.25036C3.39898 5.60286 3.18732 6.0862 3.07482 6.9237C3.05593 7.06536 3.03982 7.21509 3.02648 7.37286H18.3065C18.2932 7.21509 18.277 7.06509 18.2582 6.92286C18.1457 6.08536 17.934 5.60203 17.5815 5.24953C17.229 4.89703 16.7457 4.68536 15.9073 4.57286C15.0515 4.45786 13.9223 4.4562 12.3332 4.4562H8.99982C7.41065 4.4562 6.28232 4.4587 5.42482 4.5737ZM2.95815 10.4987C2.95815 9.78703 2.95815 9.16786 2.96898 8.6237H18.364C18.3748 9.16786 18.3748 9.78703 18.3748 10.4987V12.1654C18.3748 13.7545 18.3732 14.8837 18.2582 15.7404C18.1457 16.5779 17.934 17.0612 17.5815 17.4137C17.229 17.7662 16.7457 17.9779 15.9073 18.0904C15.0515 18.2054 13.9223 18.207 12.3332 18.207H8.99982C7.41065 18.207 6.28232 18.2054 5.42482 18.0904C4.58732 17.9779 4.10398 17.7662 3.75148 17.4137C3.39898 17.0612 3.18732 16.5779 3.07482 15.7395C2.95982 14.8837 2.95815 13.7545 2.95815 12.1654V10.4987Z" fill="#EA7D00"/>
</svg>
