<svg width="120" height="120" viewBox="0 0 120 120" fill="none" xmlns="http://www.w3.org/2000/svg">
<path d="M60 113.75C45.7446 113.75 32.0731 108.087 21.993 98.0068C11.9129 87.9267 6.25 74.2552 6.25 59.9998C6.25 45.7444 11.9129 32.0729 21.993 21.9928C32.0731 11.9127 45.7446 6.2498 60 6.2498C68.3764 6.22207 76.6385 8.19332 84.1 11.9998C84.54 12.223 84.9316 12.5308 85.2526 12.9054C85.5736 13.28 85.8177 13.7141 85.9709 14.1831C86.1241 14.652 86.1835 15.1465 86.1456 15.6384C86.1077 16.1303 85.9733 16.6099 85.75 17.0498C85.5268 17.4897 85.2191 17.8814 84.8445 18.2024C84.4699 18.5234 84.0357 18.7675 83.5667 18.9207C83.0978 19.0739 82.6033 19.1333 82.1114 19.0954C81.6196 19.0575 81.14 18.923 80.7 18.6998C74.2994 15.401 67.2007 13.6863 60 13.6998C50.8548 13.6998 41.9148 16.4111 34.3101 21.4909C26.7054 26.5707 20.7774 33.791 17.2754 42.2392C13.7734 50.6873 12.8545 59.9841 14.6351 68.9544C16.4156 77.9246 20.8155 86.1656 27.2787 92.6358C33.7419 99.106 41.9781 103.515 50.9465 105.305C59.9148 107.095 69.2126 106.186 77.6645 102.694C86.1165 99.2007 93.3432 93.2805 98.4312 85.6813C103.519 78.0821 106.24 69.1451 106.25 59.9998C106.276 59.5835 106.276 59.1661 106.25 58.7498C106.157 57.7552 106.463 56.7645 107.101 55.9956C107.739 55.2267 108.655 54.7426 109.65 54.6498C110.645 54.557 111.635 54.863 112.404 55.5007C113.173 56.1383 113.657 57.0552 113.75 58.0498V59.9998C113.737 74.2511 108.07 87.915 97.9924 97.9922C87.9152 108.069 74.2514 113.737 60 113.75Z" fill="#20BF55"/>
<path d="M59.0996 77.0499C58.6136 77.0571 58.1314 76.9631 57.6838 76.7737C57.2362 76.5843 56.8329 76.3037 56.4996 75.9499L32.3496 52.2499C31.6474 51.5468 31.2529 50.5937 31.2529 49.5999C31.2529 48.6062 31.6474 47.653 32.3496 46.9499C33.0675 46.2564 34.0265 45.8688 35.0246 45.8688C36.0227 45.8688 36.9818 46.2564 37.6996 46.9499L59.1496 68.0999L107.4 20.6499C108.117 19.9565 109.077 19.5688 110.075 19.5688C111.073 19.5688 112.032 19.9565 112.75 20.6499C113.452 21.3531 113.846 22.3062 113.846 23.2999C113.846 24.2937 113.452 25.2468 112.75 25.9499L61.8496 75.9499C61.4917 76.3128 61.0627 76.5978 60.5895 76.7871C60.1163 76.9764 59.6091 77.0658 59.0996 77.0499Z" fill="#20BF55"/>
</svg>
