<svg width="24" height="24" viewBox="0 0 24 24" fill="none" xmlns="http://www.w3.org/2000/svg">
<g clip-path="url(#clip0_366_4829)">
<path d="M23.2748 6.08719C22.6448 3.76828 20.2331 1.35609 17.9137 0.726094C16.4916 0.371719 14.5866 0.0065625 12 0C9.41438 0.0065625 7.50938 0.371719 6.08719 0.726094C3.76828 1.35609 1.35609 3.76781 0.726094 6.08719C0.371719 7.50891 0.0065625 9.41438 0 12C0.00609375 14.5861 0.37125 16.4911 0.725625 17.9133C1.35562 20.2327 3.76781 22.6444 6.08672 23.2744C7.50891 23.6287 9.41484 23.9939 12 24C14.5856 23.9939 16.4911 23.6287 17.9133 23.2744C20.2327 22.6444 22.6444 20.2327 23.2744 17.9133C23.6287 16.4911 23.9939 14.5852 24.0005 12C23.9944 9.41438 23.6292 7.50938 23.2748 6.08719Z" fill="#E5F4D9"/>
<path d="M19.3634 6.39324C18.9844 6.03603 18.4791 5.84395 17.9585 5.85925C17.438 5.87454 16.9448 6.09596 16.5874 6.47481L10.1717 13.2773L7.44541 10.2384C7.27305 10.0464 7.06456 9.8903 6.83186 9.7789C6.59916 9.66751 6.34679 9.60304 6.08918 9.58918C5.5689 9.56118 5.0588 9.74101 4.67111 10.0891C4.28342 10.4372 4.04988 10.925 4.02188 11.4453C3.99389 11.9656 4.17371 12.4757 4.52181 12.8634L8.674 17.4918C8.85575 17.6935 9.07735 17.8553 9.32481 17.9669C9.57226 18.0786 9.84019 18.1377 10.1117 18.1406H10.1365C10.4041 18.1406 10.6688 18.0859 10.9145 17.9799C11.1602 17.8739 11.3816 17.7188 11.5652 17.5242L19.4449 9.16824C19.8019 8.78932 19.9938 8.2842 19.9785 7.76386C19.9632 7.24353 19.7419 6.75055 19.3634 6.39324Z" fill="url(#paint0_linear_366_4829)"/>
</g>
<defs>
<linearGradient id="paint0_linear_366_4829" x1="15.5838" y1="13.5079" x2="8.41619" y2="6.34028" gradientUnits="userSpaceOnUse">
<stop stop-color="#13B601"/>
<stop offset="0.57" stop-color="#13B601"/>
<stop offset="1" stop-color="#CBF4B4"/>
</linearGradient>
<clipPath id="clip0_366_4829">
<rect width="24" height="24" fill="white"/>
</clipPath>
</defs>
</svg>
