<svg width="32" height="32" viewBox="0 0 32 32" fill="none" xmlns="http://www.w3.org/2000/svg">
<path d="M25.4669 9.03245C25.6336 8.87111 25.7665 8.67808 25.8581 8.46463C25.9496 8.25118 25.9978 8.02159 25.9999 7.78924C26.002 7.55689 25.958 7.32645 25.8704 7.11136C25.7828 6.89626 25.6534 6.70082 25.4897 6.53644C25.326 6.37207 25.1312 6.24204 24.9169 6.15395C24.7026 6.06587 24.4729 6.02148 24.2413 6.02339C24.0096 6.0253 23.7807 6.07346 23.5679 6.16507C23.355 6.25668 23.1624 6.3899 23.0014 6.55695L16.0099 13.5681L9.02063 6.55695C8.86093 6.38502 8.66835 6.24713 8.45437 6.15149C8.24039 6.05585 8.0094 6.00442 7.77518 6.00027C7.54096 5.99613 7.3083 6.03935 7.09109 6.12736C6.87388 6.21537 6.67657 6.34636 6.51092 6.51253C6.34528 6.6787 6.21469 6.87663 6.12696 7.09452C6.03923 7.31241 5.99614 7.5458 6.00027 7.78075C6.0044 8.01571 6.05567 8.24743 6.15101 8.46208C6.24636 8.67673 6.38382 8.86992 6.55521 9.03012L13.5398 16.0436L6.55055 23.0548C6.24242 23.3866 6.07467 23.8253 6.08265 24.2787C6.09062 24.732 6.27369 25.1645 6.5933 25.4851C6.9129 25.8057 7.34409 25.9894 7.79601 25.9974C8.24792 26.0054 8.6853 25.8371 9.01598 25.528L16.0099 18.5168L22.9991 25.5303C23.3298 25.8394 23.7672 26.0077 24.2191 25.9997C24.671 25.9917 25.1022 25.8081 25.4218 25.4875C25.7414 25.1669 25.9245 24.7343 25.9325 24.281C25.9404 23.8276 25.7727 23.3889 25.4645 23.0572L18.48 16.0436L25.4669 9.03245Z" fill="#EF4444"/>
</svg>
