<svg width="24" height="24" viewBox="0 0 24 24" fill="none" xmlns="http://www.w3.org/2000/svg">
<g clip-path="url(#clip0_366_4792)">
<path d="M12.1907 4.85713H7.89832C7.50387 4.85713 7.18404 4.5373 7.18404 4.14285V2.8604C7.18409 1.2832 8.46724 0 10.0445 0C11.6218 0 12.9049 1.2832 12.9049 2.8604V4.1428C12.905 4.5373 12.5852 4.85713 12.1907 4.85713ZM8.61265 3.42857H11.4765V2.86045C11.4765 2.07093 10.8341 1.42861 10.0446 1.42861C9.25507 1.42861 8.61274 2.07093 8.61274 2.86045V3.42857H8.61265ZM15.9041 24H4.18522C3.80731 24 3.49489 23.7057 3.4722 23.3285L2.51985 7.46642C2.51399 7.36919 2.52809 7.27178 2.56127 7.18019C2.59445 7.0886 2.64602 7.00477 2.7128 6.93385C2.77958 6.86293 2.86016 6.80642 2.94959 6.7678C3.03902 6.72917 3.1354 6.70925 3.23281 6.70925H16.8565C16.954 6.70924 17.0503 6.72915 17.1398 6.76777C17.2292 6.80639 17.3098 6.8629 17.3766 6.93382C17.4434 7.00475 17.4949 7.08858 17.5281 7.18018C17.5613 7.27177 17.5754 7.36918 17.5695 7.46642L16.6171 23.3285C16.5945 23.7057 16.282 24 15.9041 24Z" fill="#B7E3FF"/>
<path d="M18.1832 8.13805H1.90569C1.51123 8.13805 1.19141 7.81823 1.19141 7.42377C1.19141 5.22093 2.98358 3.42871 5.18652 3.42871H14.9024C17.1053 3.42871 18.8975 5.22088 18.8975 7.42377C18.8975 7.81827 18.5777 8.13805 18.1832 8.13805Z" fill="#2D69AD"/>
<path d="M16.8564 6.7093H10.0444V24H15.904C16.2819 24 16.5944 23.7057 16.617 23.3285L17.5694 7.46642C17.5752 7.36918 17.5611 7.27177 17.5279 7.18018C17.4948 7.08859 17.4432 7.00476 17.3764 6.93383C17.3096 6.86295 17.229 6.80647 17.1396 6.76786C17.0502 6.72925 16.9538 6.70932 16.8564 6.7093ZM10.0444 0V1.42856C10.834 1.42856 11.4763 2.07093 11.4763 2.8604V3.42852H10.0444V4.85708H12.1906C12.5851 4.85708 12.9049 4.53726 12.9049 4.1428V2.8604C12.9049 1.28325 11.6217 0 10.0444 0Z" fill="#8ECEFA"/>
<path d="M14.9025 3.42871H10.0444V8.13805H18.1833C18.5778 8.13805 18.8976 7.81823 18.8976 7.42377C18.8976 5.22088 17.1054 3.42871 14.9025 3.42871Z" fill="#59421B"/>
<path d="M20.9891 22.0755C22.1141 20.9243 22.8086 19.3509 22.8086 17.618C22.8086 14.0989 19.9456 11.2358 16.4265 11.2358C14.6935 11.2358 13.1201 11.9304 11.9689 13.0553C11.9303 13.0866 11.8951 13.1218 11.8638 13.1604C10.7389 14.3116 10.0444 15.8851 10.0444 17.618C10.0444 21.1371 12.9074 24.0001 16.4265 24.0001C18.1595 24.0001 19.7329 23.3055 20.8842 22.1805C20.9227 22.1493 20.9579 22.1141 20.9891 22.0755ZM21.3801 17.618C21.3801 18.7266 21.014 19.7513 20.3964 20.5777L13.4668 13.6481C14.2931 13.0305 15.3179 12.6644 16.4265 12.6644C19.1579 12.6643 21.3801 14.8865 21.3801 17.618ZM11.4729 17.618C11.4729 16.5093 11.839 15.4846 12.4567 14.6582L19.3862 21.5878C18.5599 22.2054 17.5352 22.5715 16.4265 22.5715C13.6951 22.5715 11.4729 20.3493 11.4729 17.618Z" fill="#FC1B5B"/>
</g>
<defs>
<clipPath id="clip0_366_4792">
<rect width="24" height="24" fill="white"/>
</clipPath>
</defs>
</svg>
