<svg width="18" height="19" viewBox="0 0 18 19" fill="none" xmlns="http://www.w3.org/2000/svg">
<path d="M8.25 10.25H4.5C4.2875 10.25 4.1095 10.178 3.966 10.034C3.8225 9.89 3.7505 9.712 3.75 9.5C3.7495 9.288 3.8215 9.11 3.966 8.966C4.1105 8.822 4.2885 8.75 4.5 8.75H8.25V5C8.25 4.7875 8.322 4.6095 8.466 4.466C8.61 4.3225 8.788 4.2505 9 4.25C9.212 4.2495 9.39025 4.3215 9.53475 4.466C9.67925 4.6105 9.751 4.7885 9.75 5V8.75H13.5C13.7125 8.75 13.8908 8.822 14.0348 8.966C14.1788 9.11 14.2505 9.288 14.25 9.5C14.2495 9.712 14.1775 9.89025 14.034 10.0348C13.8905 10.1793 13.7125 10.251 13.5 10.25H9.75V14C9.75 14.2125 9.678 14.3908 9.534 14.5348C9.39 14.6788 9.212 14.7505 9 14.75C8.788 14.7495 8.61 14.6775 8.466 14.534C8.322 14.3905 8.25 14.2125 8.25 14V10.25Z" fill="white"/>
</svg>
