<svg width="21" height="21" viewBox="0 0 21 21" fill="none" xmlns="http://www.w3.org/2000/svg">
<path d="M15.8822 3.42263C15.9964 3.46994 16.0941 3.55006 16.1627 3.65286C16.2314 3.75565 16.2681 3.87651 16.2681 4.00013V7.53597C16.2681 7.70173 16.2022 7.8607 16.085 7.97791C15.9678 8.09512 15.8088 8.16097 15.6431 8.16097H12.1072C11.9837 8.16086 11.863 8.12414 11.7603 8.05546C11.6576 7.98678 11.5776 7.88921 11.5303 7.77507C11.4831 7.66093 11.4707 7.53535 11.4948 7.41419C11.5188 7.29302 11.5783 7.18171 11.6656 7.0943L13.0006 5.75763C11.7743 5.24411 10.4128 5.14942 9.12726 5.48822C7.84168 5.82701 6.70375 6.58039 5.88983 7.63159C5.0759 8.68279 4.63143 9.9731 4.6253 11.3026C4.61918 12.632 5.05173 13.9264 5.85593 14.985C6.66013 16.0437 7.79106 16.8075 9.07346 17.1582C10.3559 17.5088 11.7181 17.4267 12.9491 16.9245C14.18 16.4223 15.211 15.5281 15.8822 14.3805C16.5533 13.2328 16.8272 11.8959 16.6614 10.5768C16.6442 10.4141 16.6915 10.2511 16.7932 10.1229C16.8948 9.99472 17.0427 9.91147 17.205 9.89107C17.3673 9.87067 17.5312 9.91474 17.6614 10.0138C17.7916 10.1129 17.8778 10.2591 17.9014 10.421C18.1042 12.0344 17.7619 13.6694 16.9288 15.066C16.0957 16.4626 14.8197 17.5406 13.3036 18.1287C11.7875 18.7167 10.1183 18.7811 8.56139 18.3116C7.00447 17.8421 5.64918 16.8656 4.71096 15.5374C3.77275 14.2092 3.30546 12.6054 3.38338 10.9811C3.4613 9.35681 4.07995 7.80517 5.141 6.57284C6.20204 5.34052 7.64458 4.49824 9.23929 4.17991C10.834 3.86158 12.4894 4.08546 13.9422 4.81597L15.2006 3.55763C15.288 3.47036 15.3993 3.41096 15.5205 3.38694C15.6417 3.36291 15.7681 3.37533 15.8822 3.42263Z" fill="#EA7D00"/>
</svg>
