<svg width="20" height="21" viewBox="0 0 20 21" fill="none" xmlns="http://www.w3.org/2000/svg">
<path d="M17.1337 15.8663L13.9606 12.6931C14.6162 11.705 15 10.5219 15 9.25C15 5.80375 12.1962 3 8.75 3C5.30375 3 2.5 5.80375 2.5 9.25C2.5 12.6962 5.30375 15.5 8.75 15.5C10.0219 15.5 11.205 15.1162 12.1931 14.4606L15.3663 17.6337C15.8537 18.1219 16.6462 18.1219 17.1337 17.6337C17.6219 17.1456 17.6219 16.3544 17.1337 15.8663ZM4.375 9.25C4.375 6.8375 6.3375 4.875 8.75 4.875C11.1625 4.875 13.125 6.8375 13.125 9.25C13.125 11.6625 11.1625 13.625 8.75 13.625C6.3375 13.625 4.375 11.6625 4.375 9.25Z" fill="#EA7D00"/>
</svg>
