<svg width="24" height="24" viewBox="0 0 24 24" fill="none" xmlns="http://www.w3.org/2000/svg">
<path d="M20.0039 24H3.99633C3.14649 24 2.45752 23.3111 2.45752 22.4612V2.59838C2.45752 1.74854 3.14644 1.05957 3.99633 1.05957H20.0038C20.8537 1.05957 21.5426 1.74849 21.5426 2.59838V22.4612C21.5426 23.3111 20.8537 24 20.0039 24Z" fill="#5F99D7"/>
<path d="M5.71613 24.0001H3.99652C3.14663 24.0001 2.45752 23.311 2.45752 22.4611V2.59857C2.45752 1.74868 3.14663 1.05957 3.99652 1.05957H5.71613C4.86624 1.05957 4.1776 1.74868 4.1776 2.59857V22.4611C4.17764 23.311 4.86624 24.0001 5.71613 24.0001Z" fill="#3C87D0"/>
<path d="M4.05127 21.3509V3.70904C4.05127 3.12596 4.52391 2.65332 5.10699 2.65332H18.8935C19.4766 2.65332 19.9493 3.12596 19.9493 3.70904V21.3509C19.9493 21.9339 19.4766 22.4066 18.8935 22.4066H5.10699C4.52391 22.4066 4.05127 21.9339 4.05127 21.3509Z" fill="#E8EDF2"/>
<path d="M16.4973 3.79191H7.50267C6.81839 3.79191 6.26367 3.23719 6.26367 2.55291V1.239C6.26367 0.554719 6.81839 0 7.50267 0H16.4974C17.1817 0 17.7364 0.554719 17.7364 1.239V2.55286C17.7364 3.23719 17.1817 3.79191 16.4973 3.79191Z" fill="#FFE177"/>
<path d="M9.87717 3.79172H7.50277C6.81848 3.79172 6.26367 3.23738 6.26367 2.55309V1.23909C6.26363 0.554859 6.81848 0 7.50277 0H9.87717C9.19289 0 8.63808 0.554859 8.63808 1.23909V2.55305C8.63803 3.23733 9.19289 3.79172 9.87717 3.79172Z" fill="#FFD15B"/>
<path d="M8.94207 9.56935H6.25716C5.8719 9.56935 5.55957 9.25702 5.55957 8.87176V6.18685C5.55957 5.80159 5.8719 5.48926 6.25716 5.48926H8.94207C9.32734 5.48926 9.63966 5.80159 9.63966 6.18685V8.87176C9.63966 9.25702 9.32734 9.56935 8.94207 9.56935Z" fill="#9BE69D"/>
<path d="M7.45487 8.70893C7.40044 8.70892 7.34672 8.69664 7.29768 8.67301C7.24865 8.64937 7.20557 8.615 7.17165 8.57243L6.4705 7.69226C6.41065 7.61713 6.3831 7.52131 6.3939 7.42586C6.4047 7.33042 6.45298 7.24318 6.52811 7.18333C6.60323 7.12349 6.69906 7.09593 6.7945 7.10674C6.88994 7.11754 6.97718 7.16582 7.03703 7.24094L7.40204 7.69915L8.0829 6.48096C8.18045 6.30635 8.40114 6.24391 8.57575 6.34151C8.75036 6.4391 8.81279 6.65974 8.7152 6.83435L7.77109 8.52349C7.73965 8.57974 7.69377 8.62658 7.63818 8.65918C7.58259 8.69178 7.51931 8.70895 7.45487 8.70893ZM16.1469 7.01979H11.293C11.1969 7.01979 11.1048 6.98163 11.0369 6.91371C10.969 6.8458 10.9308 6.75368 10.9308 6.65763C10.9308 6.56158 10.969 6.46947 11.0369 6.40155C11.1048 6.33363 11.1969 6.29548 11.293 6.29548H16.1469C16.243 6.29548 16.3351 6.33363 16.403 6.40155C16.4709 6.46947 16.5091 6.56158 16.5091 6.65763C16.5091 6.75368 16.4709 6.8458 16.403 6.91371C16.3351 6.98163 16.243 7.01979 16.1469 7.01979ZM17.7365 8.63651H11.293C11.1969 8.63651 11.1048 8.59835 11.0369 8.53043C10.969 8.46252 10.9308 8.3704 10.9308 8.27435C10.9308 8.1783 10.969 8.08618 11.0369 8.01827C11.1048 7.95035 11.1969 7.91219 11.293 7.91219H17.7365C17.8326 7.91219 17.9247 7.95035 17.9926 8.01827C18.0605 8.08618 18.0987 8.1783 18.0987 8.27435C18.0987 8.32191 18.0893 8.36901 18.0711 8.41295C18.0529 8.45689 18.0263 8.49682 17.9926 8.53045C17.959 8.56408 17.9191 8.59075 17.8751 8.60895C17.8312 8.62715 17.7841 8.63651 17.7365 8.63651Z" fill="#017297"/>
<path d="M8.94207 15.2168H6.25716C5.8719 15.2168 5.55957 14.9045 5.55957 14.5192V11.8343C5.55957 11.449 5.8719 11.1367 6.25716 11.1367H8.94207C9.32734 11.1367 9.63966 11.449 9.63966 11.8343V14.5192C9.63966 14.9045 9.32734 15.2168 8.94207 15.2168Z" fill="#9BE69D"/>
<path d="M7.45487 14.3564C7.40044 14.3564 7.34671 14.3442 7.29768 14.3205C7.24864 14.2969 7.20557 14.2625 7.17165 14.2199L6.4705 13.3397C6.41065 13.2646 6.3831 13.1688 6.3939 13.0733C6.4047 12.9779 6.45298 12.8906 6.52811 12.8308C6.60323 12.7709 6.69906 12.7434 6.7945 12.7542C6.88994 12.765 6.97718 12.8133 7.03703 12.8884L7.40204 13.3466L8.0829 12.1284C8.18045 11.9538 8.40114 11.8914 8.57575 11.989C8.75036 12.0866 8.81279 12.3072 8.7152 12.4818L7.77109 14.171C7.73966 14.2272 7.69378 14.2741 7.63819 14.3067C7.5826 14.3393 7.51932 14.3565 7.45487 14.3564ZM16.1469 12.6672H11.293C11.1969 12.6672 11.1048 12.6291 11.0369 12.5612C10.969 12.4933 10.9308 12.4011 10.9308 12.3051C10.9308 12.209 10.969 12.1169 11.0369 12.049C11.1048 11.9811 11.1969 11.9429 11.293 11.9429H16.1469C16.243 11.9429 16.3351 11.9811 16.403 12.049C16.4709 12.1169 16.5091 12.209 16.5091 12.3051C16.5091 12.4011 16.4709 12.4933 16.403 12.5612C16.3351 12.6291 16.243 12.6672 16.1469 12.6672ZM17.7365 14.284H11.293C11.1969 14.284 11.1048 14.2458 11.0369 14.1779C10.969 14.11 10.9308 14.0179 10.9308 13.9218C10.9308 13.8258 10.969 13.7336 11.0369 13.6657C11.1048 13.5978 11.1969 13.5597 11.293 13.5597H17.7365C17.8326 13.5597 17.9247 13.5978 17.9926 13.6657C18.0605 13.7336 18.0987 13.8258 18.0987 13.9218C18.0987 14.0179 18.0605 14.11 17.9926 14.1779C17.9247 14.2458 17.8326 14.284 17.7365 14.284Z" fill="#017297"/>
<path d="M8.94207 20.8643H6.25716C5.8719 20.8643 5.55957 20.5519 5.55957 20.1667V17.4818C5.55957 17.0965 5.8719 16.7842 6.25716 16.7842H8.94207C9.32734 16.7842 9.63966 17.0965 9.63966 17.4818V20.1667C9.63966 20.5519 9.32734 20.8643 8.94207 20.8643Z" fill="#9BE69D"/>
<path d="M7.45487 20.0038C7.40044 20.0038 7.34672 19.9916 7.29768 19.9679C7.24865 19.9443 7.20557 19.9099 7.17165 19.8674L6.4705 18.9872C6.41065 18.9121 6.3831 18.8162 6.3939 18.7208C6.4047 18.6253 6.45298 18.5381 6.52811 18.4783C6.60323 18.4184 6.69906 18.3909 6.7945 18.4017C6.88994 18.4125 6.97718 18.4607 7.03703 18.5359L7.40204 18.9941L8.0829 17.7759C8.18045 17.6013 8.40114 17.5388 8.57575 17.6364C8.75036 17.734 8.81279 17.9547 8.7152 18.1293L7.77109 19.8184C7.73965 19.8747 7.69377 19.9215 7.63818 19.9541C7.58259 19.9867 7.51931 20.0039 7.45487 20.0038ZM16.1469 18.3147H11.293C11.1969 18.3147 11.1048 18.2766 11.0369 18.2086C10.969 18.1407 10.9308 18.0486 10.9308 17.9526C10.9308 17.8565 10.969 17.7644 11.0369 17.6965C11.1048 17.6286 11.1969 17.5904 11.293 17.5904H16.1469C16.243 17.5904 16.3351 17.6286 16.403 17.6965C16.4709 17.7644 16.5091 17.8565 16.5091 17.9526C16.5091 18.0486 16.4709 18.1407 16.403 18.2086C16.3351 18.2766 16.243 18.3147 16.1469 18.3147ZM17.7365 19.9314H11.293C11.1969 19.9314 11.1048 19.8933 11.0369 19.8254C10.969 19.7574 10.9308 19.6653 10.9308 19.5693C10.9308 19.4732 10.969 19.3811 11.0369 19.3132C11.1048 19.2453 11.1969 19.2071 11.293 19.2071H17.7365C17.8326 19.2071 17.9247 19.2453 17.9926 19.3132C18.0605 19.3811 18.0987 19.4732 18.0987 19.5693C18.0987 19.6653 18.0605 19.7574 17.9926 19.8254C17.9247 19.8933 17.8326 19.9314 17.7365 19.9314Z" fill="#017297"/>
</svg>
